<svg width="412" height="112" viewBox="0 0 412 112" fill="none" xmlns="http://www.w3.org/2000/svg">
<path d="M11.7385 80V26.9609H29.3171C32.9793 26.9609 36.4016 27.6555 39.584 29.0446C42.7916 30.4085 45.6077 32.3153 48.0323 34.7652C50.4822 37.1899 52.3891 40.006 53.753 43.2136C55.1421 46.396 55.8367 49.8182 55.8367 53.4805C55.8367 57.1427 55.1421 60.5776 53.753 63.7852C52.3891 66.9675 50.4822 69.7837 48.0323 72.2336C45.6077 74.6582 42.7916 76.5651 39.584 77.9542C36.4016 79.3181 32.9793 80 29.3171 80H11.7385ZM23.104 68.6345H29.3171C31.3629 68.6345 33.295 68.243 35.1135 67.46C36.932 66.6771 38.5484 65.591 39.9628 64.2019C41.3772 62.8128 42.4759 61.209 43.2588 59.3905C44.067 57.5468 44.4711 55.5768 44.4711 53.4805C44.4711 51.3842 44.067 49.4268 43.2588 47.6083C42.4759 45.7898 41.3772 44.186 39.9628 42.7969C38.5737 41.3825 36.9699 40.2838 35.1514 39.5009C33.3329 38.7179 31.3882 38.3264 29.3171 38.3264H23.104V68.6345ZM77.762 80.985C74.2766 80.985 71.0943 80.0884 68.215 78.2952C65.361 76.5019 63.0753 74.1026 61.3578 71.097C59.6656 68.0662 58.8195 64.7197 58.8195 61.0575C58.8195 58.2792 59.312 55.6904 60.297 53.291C61.282 50.8664 62.6333 48.7448 64.3507 46.9263C66.0934 45.0826 68.114 43.643 70.4123 42.6074C72.7107 41.5719 75.1606 41.0542 77.762 41.0542C81.2475 41.0542 84.4172 41.9508 87.2712 43.744C90.1505 45.5372 92.4362 47.9492 94.1284 50.98C95.8458 54.0109 96.7046 57.37 96.7046 61.0575C96.7046 63.8105 96.2121 66.3866 95.2271 68.786C94.242 71.1854 92.8782 73.307 91.1355 75.1507C89.418 76.9692 87.4101 78.3962 85.1117 79.4317C82.8386 80.4672 80.3887 80.985 77.762 80.985ZM77.762 69.6195C79.2017 69.6195 80.4898 69.228 81.6263 68.4451C82.7881 67.6621 83.6974 66.6266 84.354 65.3385C85.0107 64.0251 85.3391 62.5981 85.3391 61.0575C85.3391 59.4663 84.9855 58.014 84.2783 56.7007C83.5963 55.3873 82.6745 54.3518 81.5127 53.5941C80.3761 52.8112 79.1259 52.4197 77.762 52.4197C76.3477 52.4197 75.0596 52.8238 73.8978 53.632C72.7612 54.415 71.852 55.4631 71.17 56.7765C70.5134 58.0898 70.185 59.5168 70.185 61.0575C70.185 62.6739 70.526 64.1262 71.2079 65.4143C71.9151 66.7023 72.837 67.7252 73.9735 68.4829C75.1353 69.2406 76.3982 69.6195 77.762 69.6195ZM137.955 55.7914V80H126.59V58.9738C126.59 57.7867 126.3 56.7133 125.719 55.7536C125.138 54.7686 124.367 53.9982 123.408 53.4426C122.448 52.8617 121.374 52.5712 120.187 52.5712C119 52.5712 117.914 52.8617 116.929 53.4426C115.97 53.9982 115.199 54.7686 114.618 55.7536C114.063 56.7133 113.785 57.7867 113.785 58.9738V80H102.419L102.381 42.1149H113.747L113.785 44.5017C115.048 43.4157 116.487 42.5696 118.104 41.9634C119.72 41.3572 121.425 41.0542 123.218 41.0542C125.946 41.0542 128.421 41.7235 130.644 43.0621C132.866 44.3754 134.634 46.1434 135.948 48.366C137.286 50.5886 137.955 53.0637 137.955 55.7914ZM143.247 46.7369V26.9609H150.824V46.7369H143.247ZM178.492 53.4805H172.051V80H160.686V53.4805H155.761V42.1149H160.686V30.219H172.051V42.1149H178.492V53.4805ZM214.897 98.9425H203.532V42.1149H214.897V45.6761C216.084 44.3375 217.461 43.2515 219.027 42.418C220.592 41.5593 222.398 41.1299 224.444 41.1299C227.222 41.1299 229.811 41.6477 232.211 42.6832C234.61 43.7187 236.719 45.1584 238.537 47.0021C240.381 48.8206 241.808 50.9295 242.818 53.3289C243.854 55.7283 244.372 58.3045 244.372 61.0575C244.372 63.8105 243.854 66.3993 242.818 68.8239C241.808 71.2486 240.381 73.3827 238.537 75.2265C236.719 77.045 234.61 78.472 232.211 79.5075C229.811 80.543 227.222 81.0608 224.444 81.0608C222.398 81.0608 220.592 80.6314 219.027 79.7727C217.461 78.914 216.084 77.8279 214.897 76.5146V98.9425ZM224.293 52.0408C222.752 52.0408 221.338 52.4576 220.049 53.291C218.787 54.0992 217.776 55.1853 217.019 56.5491C216.261 57.913 215.882 59.4158 215.882 61.0575C215.882 62.7244 216.261 64.2398 217.019 65.6037C217.776 66.9675 218.787 68.0536 220.049 68.8618C221.338 69.67 222.752 70.0741 224.293 70.0741C225.858 70.0741 227.285 69.67 228.574 68.8618C229.862 68.0536 230.885 66.9675 231.642 65.6037C232.4 64.2398 232.779 62.7244 232.779 61.0575C232.779 59.4158 232.4 57.913 231.642 56.5491C230.885 55.1853 229.862 54.0992 228.574 53.291C227.285 52.4576 225.858 52.0408 224.293 52.0408ZM277.645 42.1149H289.011V80H277.607L277.077 76.5903C276.143 77.9037 274.956 78.9645 273.516 79.7727C272.102 80.5809 270.447 80.985 268.553 80.985C265.724 80.985 263.072 80.4546 260.597 79.3938C258.147 78.3331 255.988 76.8682 254.119 74.9992C252.25 73.1049 250.785 70.9328 249.724 68.4829C248.689 66.0078 248.171 63.3558 248.171 60.5271C248.171 57.8246 248.663 55.2989 249.648 52.9501C250.633 50.6012 252.01 48.5428 253.778 46.7748C255.571 44.9816 257.629 43.5798 259.953 42.5696C262.302 41.5593 264.815 41.0542 267.492 41.0542C269.664 41.0542 271.634 41.5088 273.402 42.418C275.195 43.302 276.787 44.4133 278.176 45.7519L277.645 42.1149ZM268.25 70.0741C269.816 70.0741 271.243 69.67 272.531 68.8618C273.819 68.0536 274.842 66.9675 275.6 65.6037C276.357 64.2398 276.736 62.7244 276.736 61.0575C276.736 59.3905 276.357 57.8751 275.6 56.5113C274.842 55.1474 273.819 54.0614 272.531 53.2531C271.243 52.4449 269.816 52.0408 268.25 52.0408C266.684 52.0408 265.257 52.4449 263.969 53.2531C262.706 54.0614 261.696 55.1474 260.938 56.5113C260.206 57.8751 259.839 59.3905 259.839 61.0575C259.839 62.7244 260.218 64.2398 260.976 65.6037C261.734 66.9675 262.744 68.0536 264.007 68.8618C265.295 69.67 266.709 70.0741 268.25 70.0741ZM332.19 55.7914V80H320.825V58.9738C320.825 57.7867 320.534 56.7133 319.954 55.7536C319.373 54.7686 318.602 53.9982 317.643 53.4426C316.683 52.8617 315.609 52.5712 314.422 52.5712C313.235 52.5712 312.149 52.8617 311.164 53.4426C310.204 53.9982 309.434 54.7686 308.853 55.7536C308.298 56.7133 308.02 57.7867 308.02 58.9738V80H296.654L296.616 42.1149H307.982L308.02 44.5017C309.283 43.4157 310.722 42.5696 312.339 41.9634C313.955 41.3572 315.66 41.0542 317.453 41.0542C320.181 41.0542 322.656 41.7235 324.879 43.0621C327.101 44.3754 328.869 46.1434 330.182 48.366C331.521 50.5886 332.19 53.0637 332.19 55.7914ZM339.755 42.1149H351.12V80H339.755V42.1149ZM345.513 38.1749C343.872 38.1749 342.495 37.6319 341.384 36.5458C340.273 35.4598 339.717 34.1086 339.717 32.4921C339.717 30.901 340.273 29.5624 341.384 28.4763C342.495 27.365 343.859 26.8094 345.476 26.8094C347.067 26.8094 348.405 27.365 349.491 28.4763C350.603 29.5624 351.158 30.901 351.158 32.4921C351.158 34.1086 350.615 35.4598 349.529 36.5458C348.469 37.6319 347.13 38.1749 345.513 38.1749ZM380.662 67.5737L390.891 73.1049C389.148 75.479 386.963 77.3859 384.337 78.8256C381.71 80.2652 378.843 80.985 375.737 80.985C372.251 80.985 369.069 80.0884 366.19 78.2952C363.336 76.5019 361.05 74.1026 359.333 71.097C357.64 68.0662 356.794 64.7197 356.794 61.0575C356.794 58.2792 357.287 55.6904 358.272 53.291C359.257 50.8664 360.608 48.7448 362.326 46.9263C364.068 45.0826 366.089 43.643 368.387 42.6074C370.686 41.5719 373.135 41.0542 375.737 41.0542C378.843 41.0542 381.71 41.774 384.337 43.2136C386.963 44.6532 389.148 46.5854 390.891 49.01L380.662 54.5412C379.98 53.8593 379.21 53.3415 378.351 52.988C377.517 52.6091 376.646 52.4197 375.737 52.4197C374.297 52.4197 373.009 52.8238 371.873 53.632C370.736 54.4402 369.827 55.501 369.145 56.8143C368.488 58.1277 368.16 59.5421 368.16 61.0575C368.16 62.5476 368.488 63.9494 369.145 65.2627C369.827 66.5508 370.736 67.599 371.873 68.4072C373.009 69.2154 374.297 69.6195 375.737 69.6195C376.646 69.6195 377.517 69.4427 378.351 69.0891C379.21 68.7103 379.98 68.2051 380.662 67.5737ZM397.086 64.0883V26.9609H406.558V64.0883H397.086ZM401.86 80.985C400.269 80.985 398.917 80.4294 397.806 79.3181C396.72 78.2068 396.177 76.8429 396.177 75.2265C396.177 73.6606 396.72 72.3346 397.806 71.2486C398.917 70.1625 400.269 69.6195 401.86 69.6195C403.426 69.6195 404.752 70.1625 405.838 71.2486C406.924 72.3346 407.467 73.6606 407.467 75.2265C407.467 76.8429 406.924 78.2068 405.838 79.3181C404.752 80.4294 403.426 80.985 401.86 80.985Z" fill="#FF5525"/>
<path d="M4.63494 80V26.9609H22.2136C25.8758 26.9609 29.2981 27.6555 32.4805 29.0446C35.6881 30.4085 38.5042 32.3153 40.9288 34.7652C43.3787 37.1899 45.2856 40.006 46.6495 43.2136C48.0386 46.396 48.7331 49.8182 48.7331 53.4805C48.7331 57.1427 48.0386 60.5776 46.6495 63.7852C45.2856 66.9675 43.3787 69.7837 40.9288 72.2336C38.5042 74.6582 35.6881 76.5651 32.4805 77.9542C29.2981 79.3181 25.8758 80 22.2136 80H4.63494ZM16.0005 68.6345H22.2136C24.2594 68.6345 26.1915 68.243 28.01 67.46C29.8285 66.6771 31.4449 65.591 32.8593 64.2019C34.2737 62.8128 35.3723 61.209 36.1553 59.3905C36.9635 57.5468 37.3676 55.5768 37.3676 53.4805C37.3676 51.3842 36.9635 49.4268 36.1553 47.6083C35.3723 45.7898 34.2737 44.186 32.8593 42.7969C31.4702 41.3825 29.8664 40.2838 28.0479 39.5009C26.2294 38.7179 24.2847 38.3264 22.2136 38.3264H16.0005V68.6345ZM70.6585 80.985C67.1731 80.985 63.9908 80.0884 61.1115 78.2952C58.2575 76.5019 55.9718 74.1026 54.2543 71.097C52.5621 68.0662 51.716 64.7197 51.716 61.0575C51.716 58.2792 52.2085 55.6904 53.1935 53.291C54.1785 50.8664 55.5298 48.7448 57.2472 46.9263C58.9899 45.0826 61.0105 43.643 63.3088 42.6074C65.6072 41.5719 68.0571 41.0542 70.6585 41.0542C74.144 41.0542 77.3137 41.9508 80.1677 43.744C83.0469 45.5372 85.3327 47.9492 87.0249 50.98C88.7423 54.0109 89.6011 57.37 89.6011 61.0575C89.6011 63.8105 89.1085 66.3866 88.1235 68.786C87.1385 71.1854 85.7747 73.307 84.032 75.1507C82.3145 76.9692 80.3066 78.3962 78.0082 79.4317C75.7351 80.4672 73.2852 80.985 70.6585 80.985ZM70.6585 69.6195C72.0982 69.6195 73.3863 69.228 74.5228 68.4451C75.6846 67.6621 76.5939 66.6266 77.2505 65.3385C77.9072 64.0251 78.2355 62.5981 78.2355 61.0575C78.2355 59.4663 77.8819 58.014 77.1748 56.7007C76.4928 55.3873 75.571 54.3518 74.4091 53.5941C73.2726 52.8112 72.0224 52.4197 70.6585 52.4197C69.2441 52.4197 67.9561 52.8238 66.7943 53.632C65.6577 54.415 64.7485 55.4631 64.0665 56.7765C63.4099 58.0898 63.0815 59.5168 63.0815 61.0575C63.0815 62.6739 63.4225 64.1262 64.1044 65.4143C64.8116 66.7023 65.7335 67.7252 66.87 68.4829C68.0318 69.2406 69.2947 69.6195 70.6585 69.6195ZM130.852 55.7914V80H119.486V58.9738C119.486 57.7867 119.196 56.7133 118.615 55.7536C118.034 54.7686 117.264 53.9982 116.304 53.4426C115.344 52.8617 114.271 52.5712 113.084 52.5712C111.897 52.5712 110.811 52.8617 109.826 53.4426C108.866 53.9982 108.096 54.7686 107.515 55.7536C106.959 56.7133 106.681 57.7867 106.681 58.9738V80H95.3158L95.2779 42.1149H106.643L106.681 44.5017C107.944 43.4157 109.384 42.5696 111 41.9634C112.617 41.3572 114.321 41.0542 116.115 41.0542C118.842 41.0542 121.318 41.7235 123.54 43.0621C125.763 44.3754 127.531 46.1434 128.844 48.366C130.183 50.5886 130.852 53.0637 130.852 55.7914ZM136.143 46.7369V26.9609H143.72V46.7369H136.143ZM171.388 53.4805H164.948V80H153.582V53.4805H148.657V42.1149H153.582V30.219H164.948V42.1149H171.388V53.4805ZM207.794 98.9425H196.428V42.1149H207.794V45.6761C208.981 44.3375 210.357 43.2515 211.923 42.418C213.489 41.5593 215.295 41.1299 217.341 41.1299C220.119 41.1299 222.708 41.6477 225.107 42.6832C227.506 43.7187 229.615 45.1584 231.434 47.0021C233.278 48.8206 234.705 50.9295 235.715 53.3289C236.75 55.7283 237.268 58.3045 237.268 61.0575C237.268 63.8105 236.75 66.3993 235.715 68.8239C234.705 71.2486 233.278 73.3827 231.434 75.2265C229.615 77.045 227.506 78.472 225.107 79.5075C222.708 80.543 220.119 81.0608 217.341 81.0608C215.295 81.0608 213.489 80.6314 211.923 79.7727C210.357 78.914 208.981 77.8279 207.794 76.5146V98.9425ZM217.189 52.0408C215.648 52.0408 214.234 52.4576 212.946 53.291C211.683 54.0992 210.673 55.1853 209.915 56.5491C209.157 57.913 208.779 59.4158 208.779 61.0575C208.779 62.7244 209.157 64.2398 209.915 65.6037C210.673 66.9675 211.683 68.0536 212.946 68.8618C214.234 69.67 215.648 70.0741 217.189 70.0741C218.755 70.0741 220.182 69.67 221.47 68.8618C222.758 68.0536 223.781 66.9675 224.539 65.6037C225.296 64.2398 225.675 62.7244 225.675 61.0575C225.675 59.4158 225.296 57.913 224.539 56.5491C223.781 55.1853 222.758 54.0992 221.47 53.291C220.182 52.4576 218.755 52.0408 217.189 52.0408ZM270.542 42.1149H281.907V80H270.504L269.974 76.5903C269.039 77.9037 267.852 78.9645 266.412 79.7727C264.998 80.5809 263.344 80.985 261.449 80.985C258.621 80.985 255.969 80.4546 253.494 79.3938C251.044 78.3331 248.884 76.8682 247.015 74.9992C245.146 73.1049 243.681 70.9328 242.621 68.4829C241.585 66.0078 241.067 63.3558 241.067 60.5271C241.067 57.8246 241.56 55.2989 242.545 52.9501C243.53 50.6012 244.906 48.5428 246.674 46.7748C248.467 44.9816 250.526 43.5798 252.85 42.5696C255.198 41.5593 257.711 41.0542 260.389 41.0542C262.561 41.0542 264.531 41.5088 266.299 42.418C268.092 43.302 269.683 44.4133 271.072 45.7519L270.542 42.1149ZM261.146 70.0741C262.712 70.0741 264.139 69.67 265.427 68.8618C266.715 68.0536 267.738 66.9675 268.496 65.6037C269.254 64.2398 269.633 62.7244 269.633 61.0575C269.633 59.3905 269.254 57.8751 268.496 56.5113C267.738 55.1474 266.715 54.0614 265.427 53.2531C264.139 52.4449 262.712 52.0408 261.146 52.0408C259.58 52.0408 258.153 52.4449 256.865 53.2531C255.603 54.0614 254.592 55.1474 253.835 56.5113C253.102 57.8751 252.736 59.3905 252.736 61.0575C252.736 62.7244 253.115 64.2398 253.872 65.6037C254.63 66.9675 255.64 68.0536 256.903 68.8618C258.191 69.67 259.606 70.0741 261.146 70.0741ZM325.087 55.7914V80H313.721V58.9738C313.721 57.7867 313.431 56.7133 312.85 55.7536C312.269 54.7686 311.499 53.9982 310.539 53.4426C309.579 52.8617 308.506 52.5712 307.319 52.5712C306.132 52.5712 305.046 52.8617 304.061 53.4426C303.101 53.9982 302.331 54.7686 301.75 55.7536C301.194 56.7133 300.916 57.7867 300.916 58.9738V80H289.551L289.513 42.1149H300.878L300.916 44.5017C302.179 43.4157 303.619 42.5696 305.235 41.9634C306.852 41.3572 308.556 41.0542 310.35 41.0542C313.077 41.0542 315.552 41.7235 317.775 43.0621C319.998 44.3754 321.766 46.1434 323.079 48.366C324.418 50.5886 325.087 53.0637 325.087 55.7914ZM332.651 42.1149H344.017V80H332.651V42.1149ZM338.41 38.1749C336.768 38.1749 335.392 37.6319 334.28 36.5458C333.169 35.4598 332.614 34.1086 332.614 32.4921C332.614 30.901 333.169 29.5624 334.28 28.4763C335.392 27.365 336.756 26.8094 338.372 26.8094C339.963 26.8094 341.302 27.365 342.388 28.4763C343.499 29.5624 344.055 30.901 344.055 32.4921C344.055 34.1086 343.512 35.4598 342.426 36.5458C341.365 37.6319 340.026 38.1749 338.41 38.1749ZM373.558 67.5737L383.787 73.1049C382.045 75.479 379.86 77.3859 377.233 78.8256C374.607 80.2652 371.74 80.985 368.633 80.985C365.148 80.985 361.966 80.0884 359.086 78.2952C356.232 76.5019 353.947 74.1026 352.229 71.097C350.537 68.0662 349.691 64.7197 349.691 61.0575C349.691 58.2792 350.183 55.6904 351.168 53.291C352.153 50.8664 353.505 48.7448 355.222 46.9263C356.965 45.0826 358.985 43.643 361.284 42.6074C363.582 41.5719 366.032 41.0542 368.633 41.0542C371.74 41.0542 374.607 41.774 377.233 43.2136C379.86 44.6532 382.045 46.5854 383.787 49.01L373.558 54.5412C372.876 53.8593 372.106 53.3415 371.247 52.988C370.414 52.6091 369.543 52.4197 368.633 52.4197C367.194 52.4197 365.906 52.8238 364.769 53.632C363.633 54.4402 362.723 55.501 362.041 56.8143C361.385 58.1277 361.056 59.5421 361.056 61.0575C361.056 62.5476 361.385 63.9494 362.041 65.2627C362.723 66.5508 363.633 67.599 364.769 68.4072C365.906 69.2154 367.194 69.6195 368.633 69.6195C369.543 69.6195 370.414 69.4427 371.247 69.0891C372.106 68.7103 372.876 68.2051 373.558 67.5737ZM389.983 64.0883V26.9609H399.454V64.0883H389.983ZM394.756 80.985C393.165 80.985 391.814 80.4294 390.703 79.3181C389.617 78.2068 389.074 76.8429 389.074 75.2265C389.074 73.6606 389.617 72.3346 390.703 71.2486C391.814 70.1625 393.165 69.6195 394.756 69.6195C396.322 69.6195 397.648 70.1625 398.734 71.2486C399.82 72.3346 400.363 73.6606 400.363 75.2265C400.363 76.8429 399.82 78.2068 398.734 79.3181C397.648 80.4294 396.322 80.985 394.756 80.985Z" fill="#014DD1"/>
<path d="M8.5822 80V26.9609H26.1609C29.8231 26.9609 33.2454 27.6555 36.4277 29.0446C39.6353 30.4085 42.4514 32.3153 44.8761 34.7652C47.326 37.1899 49.2329 40.006 50.5967 43.2136C51.9858 46.396 52.6804 49.8182 52.6804 53.4805C52.6804 57.1427 51.9858 60.5776 50.5967 63.7852C49.2329 66.9675 47.326 69.7837 44.8761 72.2336C42.4514 74.6582 39.6353 76.5651 36.4277 77.9542C33.2454 79.3181 29.8231 80 26.1609 80H8.5822ZM19.9477 68.6345H26.1609C28.2067 68.6345 30.1388 68.243 31.9573 67.46C33.7758 66.6771 35.3922 65.591 36.8066 64.2019C38.2209 62.8128 39.3196 61.209 40.1026 59.3905C40.9108 57.5468 41.3149 55.5768 41.3149 53.4805C41.3149 51.3842 40.9108 49.4268 40.1026 47.6083C39.3196 45.7898 38.2209 44.186 36.8066 42.7969C35.4175 41.3825 33.8137 40.2838 31.9952 39.5009C30.1767 38.7179 28.2319 38.3264 26.1609 38.3264H19.9477V68.6345ZM74.6058 80.985C71.1204 80.985 67.938 80.0884 65.0588 78.2952C62.2047 76.5019 59.919 74.1026 58.2016 71.097C56.5094 68.0662 55.6633 64.7197 55.6633 61.0575C55.6633 58.2792 56.1558 55.6904 57.1408 53.291C58.1258 50.8664 59.477 48.7448 61.1945 46.9263C62.9372 45.0826 64.9577 43.643 67.2561 42.6074C69.5545 41.5719 72.0044 41.0542 74.6058 41.0542C78.0912 41.0542 81.2609 41.9508 84.1149 43.744C86.9942 45.5372 89.2799 47.9492 90.9721 50.98C92.6896 54.0109 93.5483 57.37 93.5483 61.0575C93.5483 63.8105 93.0558 66.3866 92.0708 68.786C91.0858 71.1854 89.7219 73.307 87.9792 75.1507C86.2618 76.9692 84.2539 78.3962 81.9555 79.4317C79.6824 80.4672 77.2325 80.985 74.6058 80.985ZM74.6058 69.6195C76.0454 69.6195 77.3335 69.228 78.4701 68.4451C79.6319 67.6621 80.5411 66.6266 81.1978 65.3385C81.8545 64.0251 82.1828 62.5981 82.1828 61.0575C82.1828 59.4663 81.8292 58.014 81.122 56.7007C80.4401 55.3873 79.5182 54.3518 78.3564 53.5941C77.2199 52.8112 75.9697 52.4197 74.6058 52.4197C73.1914 52.4197 71.9033 52.8238 70.7415 53.632C69.605 54.415 68.6957 55.4631 68.0138 56.7765C67.3571 58.0898 67.0288 59.5168 67.0288 61.0575C67.0288 62.6739 67.3697 64.1262 68.0517 65.4143C68.7589 66.7023 69.6807 67.7252 70.8173 68.4829C71.9791 69.2406 73.2419 69.6195 74.6058 69.6195ZM134.799 55.7914V80H123.434V58.9738C123.434 57.7867 123.143 56.7133 122.562 55.7536C121.981 54.7686 121.211 53.9982 120.251 53.4426C119.292 52.8617 118.218 52.5712 117.031 52.5712C115.844 52.5712 114.758 52.8617 113.773 53.4426C112.813 53.9982 112.043 54.7686 111.462 55.7536C110.906 56.7133 110.629 57.7867 110.629 58.9738V80H99.263L99.2252 42.1149H110.591L110.629 44.5017C111.891 43.4157 113.331 42.5696 114.947 41.9634C116.564 41.3572 118.269 41.0542 120.062 41.0542C122.79 41.0542 125.265 41.7235 127.487 43.0621C129.71 44.3754 131.478 46.1434 132.791 48.366C134.13 50.5886 134.799 53.0637 134.799 55.7914ZM140.091 46.7369V26.9609H147.668V46.7369H140.091ZM175.336 53.4805H168.895V80H157.53V53.4805H152.605V42.1149H157.53V30.219H168.895V42.1149H175.336V53.4805ZM211.741 98.9425H200.375V42.1149H211.741V45.6761C212.928 44.3375 214.304 43.2515 215.87 42.418C217.436 41.5593 219.242 41.1299 221.288 41.1299C224.066 41.1299 226.655 41.6477 229.054 42.6832C231.454 43.7187 233.563 45.1584 235.381 47.0021C237.225 48.8206 238.652 50.9295 239.662 53.3289C240.698 55.7283 241.215 58.3045 241.215 61.0575C241.215 63.8105 240.698 66.3993 239.662 68.8239C238.652 71.2486 237.225 73.3827 235.381 75.2265C233.563 77.045 231.454 78.472 229.054 79.5075C226.655 80.543 224.066 81.0608 221.288 81.0608C219.242 81.0608 217.436 80.6314 215.87 79.7727C214.304 78.914 212.928 77.8279 211.741 76.5146V98.9425ZM221.136 52.0408C219.596 52.0408 218.181 52.4576 216.893 53.291C215.63 54.0992 214.62 55.1853 213.862 56.5491C213.105 57.913 212.726 59.4158 212.726 61.0575C212.726 62.7244 213.105 64.2398 213.862 65.6037C214.62 66.9675 215.63 68.0536 216.893 68.8618C218.181 69.67 219.596 70.0741 221.136 70.0741C222.702 70.0741 224.129 69.67 225.417 68.8618C226.705 68.0536 227.728 66.9675 228.486 65.6037C229.244 64.2398 229.623 62.7244 229.623 61.0575C229.623 59.4158 229.244 57.913 228.486 56.5491C227.728 55.1853 226.705 54.0992 225.417 53.291C224.129 52.4576 222.702 52.0408 221.136 52.0408ZM274.489 42.1149H285.855V80H274.451L273.921 76.5903C272.986 77.9037 271.799 78.9645 270.36 79.7727C268.945 80.5809 267.291 80.985 265.397 80.985C262.568 80.985 259.916 80.4546 257.441 79.3938C254.991 78.3331 252.831 76.8682 250.962 74.9992C249.094 73.1049 247.629 70.9328 246.568 68.4829C245.532 66.0078 245.015 63.3558 245.015 60.5271C245.015 57.8246 245.507 55.2989 246.492 52.9501C247.477 50.6012 248.854 48.5428 250.622 46.7748C252.415 44.9816 254.473 43.5798 256.797 42.5696C259.146 41.5593 261.659 41.0542 264.336 41.0542C266.508 41.0542 268.478 41.5088 270.246 42.418C272.039 43.302 273.63 44.4133 275.02 45.7519L274.489 42.1149ZM265.094 70.0741C266.66 70.0741 268.087 69.67 269.375 68.8618C270.663 68.0536 271.686 66.9675 272.443 65.6037C273.201 64.2398 273.58 62.7244 273.58 61.0575C273.58 59.3905 273.201 57.8751 272.443 56.5113C271.686 55.1474 270.663 54.0614 269.375 53.2531C268.087 52.4449 266.66 52.0408 265.094 52.0408C263.528 52.0408 262.101 52.4449 260.813 53.2531C259.55 54.0614 258.54 55.1474 257.782 56.5113C257.049 57.8751 256.683 59.3905 256.683 61.0575C256.683 62.7244 257.062 64.2398 257.82 65.6037C258.577 66.9675 259.588 68.0536 260.85 68.8618C262.139 69.67 263.553 70.0741 265.094 70.0741ZM329.034 55.7914V80H317.669V58.9738C317.669 57.7867 317.378 56.7133 316.797 55.7536C316.216 54.7686 315.446 53.9982 314.486 53.4426C313.527 52.8617 312.453 52.5712 311.266 52.5712C310.079 52.5712 308.993 52.8617 308.008 53.4426C307.048 53.9982 306.278 54.7686 305.697 55.7536C305.141 56.7133 304.863 57.7867 304.863 58.9738V80H293.498L293.46 42.1149H304.826L304.863 44.5017C306.126 43.4157 307.566 42.5696 309.182 41.9634C310.799 41.3572 312.504 41.0542 314.297 41.0542C317.025 41.0542 319.5 41.7235 321.722 43.0621C323.945 44.3754 325.713 46.1434 327.026 48.366C328.365 50.5886 329.034 53.0637 329.034 55.7914ZM336.599 42.1149H347.964V80H336.599V42.1149ZM342.357 38.1749C340.716 38.1749 339.339 37.6319 338.228 36.5458C337.116 35.4598 336.561 34.1086 336.561 32.4921C336.561 30.901 337.116 29.5624 338.228 28.4763C339.339 27.365 340.703 26.8094 342.319 26.8094C343.911 26.8094 345.249 27.365 346.335 28.4763C347.446 29.5624 348.002 30.901 348.002 32.4921C348.002 34.1086 347.459 35.4598 346.373 36.5458C345.312 37.6319 343.974 38.1749 342.357 38.1749ZM377.506 67.5737L387.735 73.1049C385.992 75.479 383.807 77.3859 381.181 78.8256C378.554 80.2652 375.687 80.985 372.581 80.985C369.095 80.985 365.913 80.0884 363.034 78.2952C360.18 76.5019 357.894 74.1026 356.176 71.097C354.484 68.0662 353.638 64.7197 353.638 61.0575C353.638 58.2792 354.131 55.6904 355.116 53.291C356.101 50.8664 357.452 48.7448 359.169 46.9263C360.912 45.0826 362.933 43.643 365.231 42.6074C367.529 41.5719 369.979 41.0542 372.581 41.0542C375.687 41.0542 378.554 41.774 381.181 43.2136C383.807 44.6532 385.992 46.5854 387.735 49.01L377.506 54.5412C376.824 53.8593 376.053 53.3415 375.195 52.988C374.361 52.6091 373.49 52.4197 372.581 52.4197C371.141 52.4197 369.853 52.8238 368.716 53.632C367.58 54.4402 366.671 55.501 365.989 56.8143C365.332 58.1277 365.004 59.5421 365.004 61.0575C365.004 62.5476 365.332 63.9494 365.989 65.2627C366.671 66.5508 367.58 67.599 368.716 68.4072C369.853 69.2154 371.141 69.6195 372.581 69.6195C373.49 69.6195 374.361 69.4427 375.195 69.0891C376.053 68.7103 376.824 68.2051 377.506 67.5737ZM393.93 64.0883V26.9609H403.401V64.0883H393.93ZM398.704 80.985C397.112 80.985 395.761 80.4294 394.65 79.3181C393.564 78.2068 393.021 76.8429 393.021 75.2265C393.021 73.6606 393.564 72.3346 394.65 71.2486C395.761 70.1625 397.112 69.6195 398.704 69.6195C400.269 69.6195 401.595 70.1625 402.681 71.2486C403.768 72.3346 404.311 73.6606 404.311 75.2265C404.311 76.8429 403.768 78.2068 402.681 79.3181C401.595 80.4294 400.269 80.985 398.704 80.985Z" fill="#070320"/>
</svg>
