<svg width="14" height="14" viewBox="0 0 14 14" fill="none" xmlns="http://www.w3.org/2000/svg">
<path fill-rule="evenodd" clip-rule="evenodd" d="M2.20978 2.60221C4.49468 0.115531 8.30326 -0.20715 10.974 1.85967C11.1923 2.02867 11.2324 2.34272 11.0634 2.5611C10.8944 2.77949 10.5803 2.81952 10.3619 2.65051C8.10212 0.901672 4.8795 1.17471 2.94613 3.27881C1.01275 5.38292 1.01275 8.61709 2.94613 10.7212C4.8795 12.8253 8.10212 13.0983 10.3619 11.3495C10.5803 11.1805 10.8944 11.2205 11.0634 11.4389C11.2324 11.6573 11.1923 11.9713 10.974 12.1403C8.30326 14.2072 4.49468 13.8845 2.20978 11.3978C-0.0751333 8.91112 -0.0751333 5.0889 2.20978 2.60221ZM10.466 4.46084C10.6612 4.26558 10.9778 4.26558 11.1731 4.46084L13.3558 6.64357C13.4496 6.73734 13.5023 6.86452 13.5023 6.99712C13.5023 7.12973 13.4496 7.25691 13.3558 7.35068L11.1731 9.53341C10.9778 9.72867 10.6612 9.72867 10.466 9.53341C10.2707 9.33815 10.2707 9.02156 10.466 8.8263L11.7951 7.49712H6.99976C6.72361 7.49712 6.49976 7.27327 6.49976 6.99712C6.49976 6.72098 6.72361 6.49712 6.99976 6.49712H11.7951L10.466 5.16795C10.2707 4.97269 10.2707 4.6561 10.466 4.46084Z" fill="#E82C20"/>
</svg>
