<svg width="12" height="18" viewBox="0 0 12 18" fill="none" xmlns="http://www.w3.org/2000/svg">
<path fill-rule="evenodd" clip-rule="evenodd" d="M1.375 3.16667C1.375 2.59101 1.84101 2.125 2.41667 2.125H9.58333C10.159 2.125 10.625 2.59101 10.625 3.16667V15.4704L6.29509 13.218C6.11451 13.1241 5.8995 13.124 5.71882 13.2177L1.375 15.4716V3.16667ZM2.41667 0.875C1.15066 0.875 0.125 1.90066 0.125 3.16667V16.5C0.125 16.7183 0.238877 16.9207 0.425409 17.0341C0.611941 17.1475 0.8441 17.1553 1.03785 17.0548L6.0063 14.4768L10.9616 17.0545C11.1553 17.1553 11.3876 17.1476 11.5743 17.0343C11.761 16.9209 11.875 16.7184 11.875 16.5V3.16667C11.875 1.90066 10.8493 0.875 9.58333 0.875H2.41667Z" fill="#9D9CA7"/>
<path d="M4.33333 6.70833C3.98816 6.70833 3.70833 6.98815 3.70833 7.33333C3.70833 7.67851 3.98816 7.95833 4.33333 7.95833H7.66667C8.01184 7.95833 8.29167 7.67851 8.29167 7.33333C8.29167 6.98815 8.01184 6.70833 7.66667 6.70833H4.33333Z" fill="#9D9CA7"/>
</svg>
