<svg width="18" height="17" viewBox="0 0 18 17" fill="none" xmlns="http://www.w3.org/2000/svg">
<path fill-rule="evenodd" clip-rule="evenodd" d="M8.40584 0.922578C8.63939 1.01932 8.79167 1.24721 8.79167 1.5V4.8521C13.5144 5.47064 17.125 9.72236 17.125 14.8275V15.6667C17.125 15.9609 16.9197 16.2153 16.6321 16.2775C16.3445 16.3398 16.0524 16.1929 15.9309 15.9249C14.866 13.5781 12.1412 11.7844 8.79167 11.5844V14.8333C8.79167 15.0861 8.63939 15.314 8.40584 15.4108C8.1723 15.5075 7.90347 15.454 7.72472 15.2753L1.05806 8.60861C0.813981 8.36453 0.813981 7.96881 1.05806 7.72473L7.72472 1.05806C7.90347 0.879313 8.1723 0.82584 8.40584 0.922578ZM7.54167 10.9425C7.54167 10.9419 7.54167 10.9414 7.54167 10.9408C7.54167 10.5957 7.82149 10.3158 8.16667 10.3158C11.2485 10.3158 14.0276 11.5305 15.7758 13.457C15.1821 9.3983 11.993 6.29708 8.12553 6.04198C7.79703 6.02031 7.54167 5.74755 7.54167 5.41834V3.00889L2.38388 8.16667L7.54167 13.3245V10.9442C7.54166 10.9436 7.54167 10.9431 7.54167 10.9425Z" fill="#9D9CA7"/>
</svg>
