<svg width="113" height="26" viewBox="0 0 113 26" fill="none" xmlns="http://www.w3.org/2000/svg">
<path d="M14.6215 25.4509C13.2571 25.4509 11.9506 25.237 10.7018 24.8092C9.45302 24.3698 8.36035 23.7454 7.42378 22.936C6.4872 22.1151 5.81079 21.138 5.39453 20.0049L10.2855 18.2011C10.4012 18.5364 10.6555 18.8602 11.0487 19.1724C11.4534 19.4846 11.9621 19.7447 12.5749 19.9529C13.1878 20.1494 13.87 20.2477 14.6215 20.2477C15.3153 20.2477 15.9686 20.1494 16.5814 19.9529C17.1942 19.7447 17.6914 19.4614 18.073 19.103C18.4545 18.7446 18.6453 18.3283 18.6453 17.8542C18.6453 17.3686 18.443 16.9697 18.0383 16.6575C17.6452 16.3338 17.1364 16.0794 16.512 15.8944C15.8992 15.6978 15.269 15.5533 14.6215 15.4608C12.864 15.2064 11.2857 14.7901 9.88662 14.212C8.4991 13.6223 7.40065 12.8129 6.59127 11.7839C5.79344 10.7548 5.39453 9.4482 5.39453 7.86412C5.39453 6.34941 5.82235 5.02549 6.67798 3.89235C7.53362 2.74764 8.66098 1.85732 10.0601 1.22138C11.4707 0.585429 12.9912 0.267456 14.6215 0.267456C15.9859 0.267456 17.2925 0.487147 18.5413 0.926529C19.8016 1.35435 20.9 1.97873 21.8366 2.79968C22.7732 3.62062 23.4438 4.60345 23.8485 5.74815L18.9575 7.51724C18.8419 7.18192 18.5817 6.86395 18.177 6.56332C17.7839 6.25113 17.2809 5.99675 16.6681 5.80018C16.0553 5.60362 15.3731 5.50533 14.6215 5.50533C13.9509 5.49377 13.3092 5.59206 12.6963 5.80018C12.0835 6.00831 11.5805 6.29159 11.1874 6.65004C10.7943 7.00848 10.5977 7.41317 10.5977 7.86412C10.5977 8.4885 10.7827 8.95679 11.1527 9.26898C11.5227 9.5696 12.0084 9.78351 12.6096 9.9107C13.2224 10.0379 13.8931 10.1535 14.6215 10.2576C16.2865 10.5004 17.8186 10.934 19.2177 11.5584C20.6168 12.1828 21.7383 13.0153 22.5824 14.0559C23.4265 15.0965 23.8485 16.3627 23.8485 17.8542C23.8485 19.3689 23.4207 20.6987 22.5651 21.8434C21.721 22.9765 20.5994 23.861 19.2003 24.497C17.8012 25.1329 16.275 25.4509 14.6215 25.4509Z" fill="#FF5525"/>
<path d="M36.6549 25.4509C35.013 25.4509 33.4694 25.1271 32.024 24.4796C30.5787 23.8206 29.3068 22.9129 28.2084 21.7566C27.1215 20.6004 26.2658 19.2649 25.6414 17.7502C25.0286 16.2239 24.7222 14.5936 24.7222 12.8592C24.7222 11.1132 25.0286 9.48289 25.6414 7.96818C26.2658 6.44191 27.1215 5.10642 28.2084 3.96172C29.3068 2.80546 30.5787 1.90357 32.024 1.25606C33.4694 0.596992 35.013 0.267456 36.6549 0.267456C38.6205 0.267456 40.4301 0.72418 42.0835 1.63763C43.737 2.53952 45.1072 3.74781 46.194 5.26252L41.5459 7.76005C40.9446 7.06629 40.2219 6.51129 39.3779 6.09503C38.5338 5.67878 37.6261 5.47065 36.6549 5.47065C35.7299 5.47065 34.8569 5.66143 34.0359 6.043C33.2265 6.42457 32.5097 6.95645 31.8853 7.63864C31.2725 8.30928 30.7926 9.08976 30.4457 9.98008C30.0988 10.8704 29.9254 11.8301 29.9254 12.8592C29.9254 13.8767 30.0988 14.8306 30.4457 15.7209C30.7926 16.6113 31.2725 17.3975 31.8853 18.0797C32.5097 18.7503 33.2265 19.2822 34.0359 19.6754C34.8569 20.0569 35.7299 20.2477 36.6549 20.2477C37.6261 20.2477 38.5338 20.0396 39.3779 19.6233C40.2219 19.1955 40.9446 18.6289 41.5459 17.9236L46.194 20.4558C45.1072 21.959 43.737 23.1673 42.0835 24.0807C40.4301 24.9942 38.6205 25.4509 36.6549 25.4509Z" fill="#FF5525"/>
<path d="M58.6676 25.4509C57.0257 25.4509 55.4821 25.1271 54.0368 24.4796C52.5914 23.8206 51.3195 22.9129 50.2211 21.7566C49.1227 20.6004 48.2612 19.2649 47.6368 17.7502C47.0125 16.2239 46.7003 14.5936 46.7003 12.8592C46.7003 11.1248 47.0125 9.50023 47.6368 7.98552C48.2612 6.45925 49.1227 5.11799 50.2211 3.96172C51.3195 2.80546 52.5914 1.90357 54.0368 1.25606C55.4821 0.596992 57.0257 0.267456 58.6676 0.267456C60.3211 0.267456 61.8705 0.596992 63.3158 1.25606C64.7611 1.90357 66.033 2.80546 67.1315 3.96172C68.2299 5.11799 69.0856 6.45925 69.6984 7.98552C70.3228 9.50023 70.6349 11.1248 70.6349 12.8592C70.6349 14.5936 70.3228 16.2239 69.6984 17.7502C69.0856 19.2649 68.2299 20.6004 67.1315 21.7566C66.033 22.9129 64.7611 23.8206 63.3158 24.4796C61.8705 25.1271 60.3211 25.4509 58.6676 25.4509ZM58.6676 20.2477C59.5926 20.2477 60.4598 20.0569 61.2692 19.6754C62.0902 19.2822 62.8128 18.7503 63.4372 18.0797C64.0616 17.3975 64.5472 16.6113 64.8941 15.7209C65.2525 14.8306 65.4318 13.8767 65.4318 12.8592C65.4318 11.8417 65.2525 10.8877 64.8941 9.99742C64.5472 9.1071 64.0616 8.32662 63.4372 7.65599C62.8128 6.97379 62.0902 6.44191 61.2692 6.06034C60.4598 5.66721 59.5926 5.47065 58.6676 5.47065C57.7426 5.47065 56.8696 5.66721 56.0487 6.06034C55.2393 6.44191 54.5224 6.97379 53.898 7.65599C53.2736 8.32662 52.7822 9.1071 52.4238 9.99742C52.0769 10.8877 51.9035 11.8417 51.9035 12.8592C51.9035 13.8767 52.0769 14.8306 52.4238 15.7209C52.7822 16.6113 53.2736 17.3975 53.898 18.0797C54.5224 18.7503 55.2393 19.2822 56.0487 19.6754C56.8696 20.0569 57.7426 20.2477 58.6676 20.2477Z" fill="#FF5525"/>
<path d="M83.254 25.4509C81.6121 25.4509 80.0685 25.1271 78.6232 24.4796C77.1779 23.8206 75.906 22.9129 74.8075 21.7566C73.7091 20.6004 72.8477 19.2649 72.2233 17.7502C71.5989 16.2239 71.2867 14.5936 71.2867 12.8592C71.2867 11.1248 71.5989 9.50023 72.2233 7.98552C72.8477 6.45925 73.7091 5.11799 74.8075 3.96172C75.906 2.80546 77.1779 1.90357 78.6232 1.25606C80.0685 0.596992 81.6121 0.267456 83.254 0.267456C84.9075 0.267456 86.4569 0.596992 87.9022 1.25606C89.3476 1.90357 90.6194 2.80546 91.7179 3.96172C92.8163 5.11799 93.672 6.45925 94.2848 7.98552C94.9092 9.50023 95.2214 11.1248 95.2214 12.8592C95.2214 14.5936 94.9092 16.2239 94.2848 17.7502C93.672 19.2649 92.8163 20.6004 91.7179 21.7566C90.6194 22.9129 89.3476 23.8206 87.9022 24.4796C86.4569 25.1271 84.9075 25.4509 83.254 25.4509ZM83.254 20.2477C84.1791 20.2477 85.0462 20.0569 85.8556 19.6754C86.6766 19.2822 87.3993 18.7503 88.0236 18.0797C88.648 17.3975 89.1337 16.6113 89.4805 15.7209C89.839 14.8306 90.0182 13.8767 90.0182 12.8592C90.0182 11.8417 89.839 10.8877 89.4805 9.99742C89.1337 9.1071 88.648 8.32662 88.0236 7.65599C87.3993 6.97379 86.6766 6.44191 85.8556 6.06034C85.0462 5.66721 84.1791 5.47065 83.254 5.47065C82.329 5.47065 81.456 5.66721 80.6351 6.06034C79.8257 6.44191 79.1088 6.97379 78.4845 7.65599C77.8601 8.32662 77.3687 9.1071 77.0102 9.99742C76.6633 10.8877 76.4899 11.8417 76.4899 12.8592C76.4899 13.8767 76.6633 14.8306 77.0102 15.7209C77.3687 16.6113 77.8601 17.3975 78.4845 18.0797C79.1088 18.7503 79.8257 19.2822 80.6351 19.6754C81.456 20.0569 82.329 20.2477 83.254 20.2477Z" fill="#FF5525"/>
<path d="M96.4314 25V0.7184H105.589C106.919 0.7184 108.121 1.0595 109.197 1.74169C110.283 2.41233 111.145 3.31421 111.781 4.44735C112.417 5.56893 112.735 6.80035 112.735 8.14162C112.735 9.50601 112.405 10.749 111.746 11.8706C111.099 12.9921 110.231 13.8883 109.145 14.5589C108.058 15.2295 106.872 15.5648 105.589 15.5648H101.635V25H96.4314ZM101.635 10.3616H104.999C105.462 10.3616 105.884 10.246 106.265 10.0148C106.647 9.77195 106.953 9.45398 107.185 9.06085C107.416 8.66772 107.532 8.23412 107.532 7.76005C107.532 7.28598 107.416 6.85238 107.185 6.45925C106.953 6.06612 106.647 5.75393 106.265 5.52268C105.884 5.27986 105.462 5.15846 104.999 5.15846H101.635V10.3616Z" fill="#FF5525"/>
<path d="M9.96137 25.7834C8.59697 25.7834 7.29039 25.5695 6.04163 25.1417C4.79286 24.7023 3.70019 24.0779 2.76362 23.2685C1.82704 22.4476 1.15063 21.4706 0.734375 20.3374L5.62537 18.5336C5.741 18.869 5.99538 19.1927 6.38851 19.5049C6.7932 19.8171 7.30196 20.0773 7.91478 20.2854C8.5276 20.4819 9.20979 20.5802 9.96137 20.5802C10.6551 20.5802 11.3084 20.4819 11.9212 20.2854C12.5341 20.0773 13.0312 19.794 13.4128 19.4355C13.7944 19.0771 13.9852 18.6608 13.9852 18.1868C13.9852 17.7011 13.7828 17.3022 13.3781 16.99C12.985 16.6663 12.4762 16.4119 11.8519 16.2269C11.239 16.0303 10.6089 15.8858 9.96137 15.7933C8.20384 15.5389 6.62554 15.1227 5.22646 14.5445C3.83895 13.9548 2.74049 13.1454 1.93111 12.1164C1.13329 11.0873 0.734375 9.78072 0.734375 8.19663C0.734375 6.68193 1.16219 5.35801 2.01783 4.22487C2.87346 3.08016 4.00082 2.18984 5.3999 1.55389C6.81054 0.917949 8.33103 0.599976 9.96137 0.599976C11.3258 0.599976 12.6323 0.819666 13.8811 1.25905C15.1414 1.68687 16.2399 2.31125 17.1765 3.1322C18.113 3.95314 18.7837 4.93597 19.1884 6.08067L14.2974 7.84976C14.1817 7.51444 13.9216 7.19647 13.5169 6.89584C13.1237 6.58365 12.6208 6.32927 12.008 6.1327C11.3951 5.93614 10.7129 5.83785 9.96137 5.83785C9.29073 5.82629 8.64901 5.92458 8.03619 6.1327C7.42337 6.34083 6.92039 6.62411 6.52726 6.98256C6.13413 7.341 5.93757 7.74569 5.93757 8.19663C5.93757 8.82102 6.12257 9.2893 6.49257 9.6015C6.86258 9.90212 7.34821 10.116 7.94947 10.2432C8.56229 10.3704 9.23292 10.486 9.96137 10.5901C11.6264 10.8329 13.1584 11.2665 14.5575 11.8909C15.9566 12.5153 17.0782 13.3478 17.9222 14.3884C18.7663 15.4291 19.1884 16.6952 19.1884 18.1868C19.1884 19.7015 18.7605 21.0312 17.9049 22.1759C17.0608 23.309 15.9393 24.1936 14.5402 24.8295C13.1411 25.4654 11.6148 25.7834 9.96137 25.7834Z" fill="#3A95FF"/>
<path d="M31.9947 25.7834C30.3528 25.7834 28.8092 25.4597 27.3639 24.8122C25.9185 24.1531 24.6467 23.2454 23.5482 22.0892C22.4613 20.9329 21.6057 19.5974 20.9813 18.0827C20.3685 16.5564 20.0621 14.9261 20.0621 13.1917C20.0621 11.4457 20.3685 9.8154 20.9813 8.3007C21.6057 6.77443 22.4613 5.43894 23.5482 4.29424C24.6467 3.13798 25.9185 2.23609 27.3639 1.58858C28.8092 0.929511 30.3528 0.599976 31.9947 0.599976C33.9604 0.599976 35.7699 1.0567 37.4234 1.97015C39.0768 2.87204 40.447 4.08033 41.5339 5.59504L36.8857 8.09257C36.2845 7.39881 35.5618 6.84381 34.7177 6.42755C33.8736 6.01129 32.966 5.80317 31.9947 5.80317C31.0697 5.80317 30.1967 5.99395 29.3758 6.37552C28.5664 6.75708 27.8495 7.28897 27.2251 7.97116C26.6123 8.6418 26.1325 9.42227 25.7856 10.3126C25.4387 11.2029 25.2653 12.1626 25.2653 13.1917C25.2653 14.2092 25.4387 15.1631 25.7856 16.0535C26.1325 16.9438 26.6123 17.73 27.2251 18.4122C27.8495 19.0829 28.5664 19.6147 29.3758 20.0079C30.1967 20.3894 31.0697 20.5802 31.9947 20.5802C32.966 20.5802 33.8736 20.3721 34.7177 19.9558C35.5618 19.528 36.2845 18.9615 36.8857 18.2561L41.5339 20.7884C40.447 22.2915 39.0768 23.4998 37.4234 24.4132C35.7699 25.3267 33.9604 25.7834 31.9947 25.7834Z" fill="#3A95FF"/>
<path d="M54.0075 25.7834C52.3656 25.7834 50.8219 25.4597 49.3766 24.8122C47.9313 24.1531 46.6594 23.2454 45.5609 22.0892C44.4625 20.9329 43.6011 19.5974 42.9767 18.0827C42.3523 16.5564 42.0401 14.9261 42.0401 13.1917C42.0401 11.4573 42.3523 9.83275 42.9767 8.31804C43.6011 6.79177 44.4625 5.45051 45.5609 4.29424C46.6594 3.13798 47.9313 2.23609 49.3766 1.58858C50.8219 0.929511 52.3656 0.599976 54.0075 0.599976C55.6609 0.599976 57.2103 0.929511 58.6556 1.58858C60.101 2.23609 61.3729 3.13798 62.4713 4.29424C63.5698 5.45051 64.4254 6.79177 65.0382 8.31804C65.6626 9.83275 65.9748 11.4573 65.9748 13.1917C65.9748 14.9261 65.6626 16.5564 65.0382 18.0827C64.4254 19.5974 63.5698 20.9329 62.4713 22.0892C61.3729 23.2454 60.101 24.1531 58.6556 24.8122C57.2103 25.4597 55.6609 25.7834 54.0075 25.7834ZM54.0075 20.5802C54.9325 20.5802 55.7997 20.3894 56.6091 20.0079C57.43 19.6147 58.1527 19.0829 58.777 18.4122C59.4014 17.73 59.8871 16.9438 60.2339 16.0535C60.5924 15.1631 60.7716 14.2092 60.7716 13.1917C60.7716 12.1742 60.5924 11.2203 60.2339 10.3299C59.8871 9.43962 59.4014 8.65914 58.777 7.98851C58.1527 7.30631 57.43 6.77443 56.6091 6.39286C55.7997 5.99973 54.9325 5.80317 54.0075 5.80317C53.0824 5.80317 52.2095 5.99973 51.3885 6.39286C50.5791 6.77443 49.8622 7.30631 49.2379 7.98851C48.6135 8.65914 48.1221 9.43962 47.7636 10.3299C47.4167 11.2203 47.2433 12.1742 47.2433 13.1917C47.2433 14.2092 47.4167 15.1631 47.7636 16.0535C48.1221 16.9438 48.6135 17.73 49.2379 18.4122C49.8622 19.0829 50.5791 19.6147 51.3885 20.0079C52.2095 20.3894 53.0824 20.5802 54.0075 20.5802Z" fill="#3A95FF"/>
<path d="M78.5939 25.7834C76.952 25.7834 75.4084 25.4597 73.963 24.8122C72.5177 24.1531 71.2458 23.2454 70.1474 22.0892C69.0489 20.9329 68.1875 19.5974 67.5631 18.0827C66.9387 16.5564 66.6265 14.9261 66.6265 13.1917C66.6265 11.4573 66.9387 9.83275 67.5631 8.31804C68.1875 6.79177 69.0489 5.45051 70.1474 4.29424C71.2458 3.13798 72.5177 2.23609 73.963 1.58858C75.4084 0.929511 76.952 0.599976 78.5939 0.599976C80.2473 0.599976 81.7967 0.929511 83.2421 1.58858C84.6874 2.23609 85.9593 3.13798 87.0577 4.29424C88.1562 5.45051 89.0118 6.79177 89.6246 8.31804C90.249 9.83275 90.5612 11.4573 90.5612 13.1917C90.5612 14.9261 90.249 16.5564 89.6246 18.0827C89.0118 19.5974 88.1562 20.9329 87.0577 22.0892C85.9593 23.2454 84.6874 24.1531 83.2421 24.8122C81.7967 25.4597 80.2473 25.7834 78.5939 25.7834ZM78.5939 20.5802C79.5189 20.5802 80.3861 20.3894 81.1955 20.0079C82.0164 19.6147 82.7391 19.0829 83.3635 18.4122C83.9879 17.73 84.4735 16.9438 84.8204 16.0535C85.1788 15.1631 85.358 14.2092 85.358 13.1917C85.358 12.1742 85.1788 11.2203 84.8204 10.3299C84.4735 9.43962 83.9879 8.65914 83.3635 7.98851C82.7391 7.30631 82.0164 6.77443 81.1955 6.39286C80.3861 5.99973 79.5189 5.80317 78.5939 5.80317C77.6689 5.80317 76.7959 5.99973 75.9749 6.39286C75.1656 6.77443 74.4487 7.30631 73.8243 7.98851C73.1999 8.65914 72.7085 9.43962 72.3501 10.3299C72.0032 11.2203 71.8297 12.1742 71.8297 13.1917C71.8297 14.2092 72.0032 15.1631 72.3501 16.0535C72.7085 16.9438 73.1999 17.73 73.8243 18.4122C74.4487 19.0829 75.1656 19.6147 75.9749 20.0079C76.7959 20.3894 77.6689 20.5802 78.5939 20.5802Z" fill="#3A95FF"/>
<path d="M91.7712 25.3325V1.05092H100.929C102.259 1.05092 103.461 1.39202 104.536 2.07421C105.623 2.74485 106.485 3.64673 107.121 4.77987C107.757 5.90145 108.075 7.13287 108.075 8.47414C108.075 9.83853 107.745 11.0815 107.086 12.2031C106.438 13.3247 105.571 14.2208 104.484 14.8914C103.397 15.562 102.212 15.8974 100.929 15.8974H96.9744V25.3325H91.7712ZM96.9744 10.6942H100.339C100.802 10.6942 101.224 10.5785 101.605 10.3473C101.987 10.1045 102.293 9.7865 102.524 9.39337C102.756 9.00024 102.871 8.56664 102.871 8.09257C102.871 7.6185 102.756 7.1849 102.524 6.79177C102.293 6.39864 101.987 6.08645 101.605 5.8552C101.224 5.61238 100.802 5.49098 100.339 5.49098H96.9744V10.6942Z" fill="#3A95FF"/>
<path d="M12.2914 25.6076C10.9271 25.6076 9.62047 25.3937 8.37171 24.9659C7.12294 24.5265 6.03027 23.9021 5.0937 23.0928C4.15712 22.2718 3.48071 21.2948 3.06445 20.1616L7.95545 18.3579C8.07108 18.6932 8.32546 19.0169 8.71859 19.3291C9.12328 19.6413 9.63204 19.9015 10.2449 20.1096C10.8577 20.3062 11.5399 20.4044 12.2914 20.4044C12.9852 20.4044 13.6385 20.3062 14.2513 20.1096C14.8641 19.9015 15.3613 19.6182 15.7429 19.2597C16.1245 18.9013 16.3152 18.485 16.3152 18.011C16.3152 17.5253 16.1129 17.1264 15.7082 16.8142C15.3151 16.4905 14.8063 16.2361 14.1819 16.0511C13.5691 15.8545 12.939 15.71 12.2914 15.6175C10.5339 15.3631 8.95562 14.9469 7.55654 14.3687C6.16902 13.7791 5.07057 12.9697 4.26119 11.9406C3.46336 10.9115 3.06445 9.60494 3.06445 8.02085C3.06445 6.50615 3.49227 5.18222 4.34791 4.04909C5.20354 2.90438 6.3309 2.01406 7.72998 1.37811C9.14062 0.742167 10.6611 0.424194 12.2914 0.424194C13.6558 0.424194 14.9624 0.643885 16.2112 1.08327C17.4715 1.51108 18.57 2.13547 19.5065 2.95641C20.4431 3.77736 21.1137 4.76019 21.5184 5.90489L16.6274 7.67397C16.5118 7.33866 16.2516 7.02068 15.847 6.72006C15.4538 6.40786 14.9509 6.15349 14.338 5.95692C13.7252 5.76036 13.043 5.66207 12.2914 5.66207C11.6208 5.65051 10.9791 5.74879 10.3663 5.95692C9.75344 6.16505 9.25047 6.44833 8.85734 6.80678C8.46421 7.16522 8.26764 7.56991 8.26764 8.02085C8.26764 8.64524 8.45265 9.11352 8.82265 9.42571C9.19266 9.72634 9.67829 9.94025 10.2795 10.0674C10.8924 10.1946 11.563 10.3103 12.2914 10.4143C13.9565 10.6571 15.4885 11.0907 16.8876 11.7151C18.2867 12.3395 19.4083 13.172 20.2523 14.2126C21.0964 15.2533 21.5184 16.5194 21.5184 18.011C21.5184 19.5257 21.0906 20.8554 20.235 22.0001C19.3909 23.1332 18.2693 24.0178 16.8703 24.6537C15.4712 25.2897 13.9449 25.6076 12.2914 25.6076Z" fill="#070320"/>
<path d="M34.3248 25.6076C32.6829 25.6076 31.1393 25.2839 29.6939 24.6364C28.2486 23.9773 26.9767 23.0696 25.8783 21.9134C24.7914 20.7571 23.9358 19.4216 23.3114 17.9069C22.6985 16.3806 22.3921 14.7503 22.3921 13.0159C22.3921 11.27 22.6985 9.63962 23.3114 8.12492C23.9358 6.59865 24.7914 5.26316 25.8783 4.11846C26.9767 2.9622 28.2486 2.06031 29.6939 1.4128C31.1393 0.75373 32.6829 0.424194 34.3248 0.424194C36.2904 0.424194 38.1 0.880919 39.7535 1.79437C41.4069 2.69625 42.7771 3.90455 43.864 5.41926L39.2158 7.91679C38.6145 7.22303 37.8919 6.66802 37.0478 6.25177C36.2037 5.83551 35.2961 5.62739 34.3248 5.62739C33.3998 5.62739 32.5268 5.81817 31.7058 6.19974C30.8965 6.5813 30.1796 7.11319 29.5552 7.79538C28.9424 8.46601 28.4625 9.24649 28.1156 10.1368C27.7688 11.0271 27.5953 11.9868 27.5953 13.0159C27.5953 14.0334 27.7688 14.9873 28.1156 15.8777C28.4625 16.768 28.9424 17.5543 29.5552 18.2365C30.1796 18.9071 30.8965 19.439 31.7058 19.8321C32.5268 20.2137 33.3998 20.4044 34.3248 20.4044C35.2961 20.4044 36.2037 20.1963 37.0478 19.7801C37.8919 19.3522 38.6145 18.7857 39.2158 18.0804L43.864 20.6126C42.7771 22.1157 41.4069 23.324 39.7535 24.2375C38.1 25.1509 36.2904 25.6076 34.3248 25.6076Z" fill="#070320"/>
<path d="M56.3375 25.6076C54.6956 25.6076 53.152 25.2839 51.7067 24.6364C50.2614 23.9773 48.9895 23.0696 47.891 21.9134C46.7926 20.7571 45.9312 19.4216 45.3068 17.9069C44.6824 16.3806 44.3702 14.7503 44.3702 13.0159C44.3702 11.2815 44.6824 9.65697 45.3068 8.14226C45.9312 6.61599 46.7926 5.27472 47.891 4.11846C48.9895 2.9622 50.2614 2.06031 51.7067 1.4128C53.152 0.75373 54.6956 0.424194 56.3375 0.424194C57.991 0.424194 59.5404 0.75373 60.9857 1.4128C62.431 2.06031 63.7029 2.9622 64.8014 4.11846C65.8998 5.27472 66.7555 6.61599 67.3683 8.14226C67.9927 9.65697 68.3049 11.2815 68.3049 13.0159C68.3049 14.7503 67.9927 16.3806 67.3683 17.9069C66.7555 19.4216 65.8998 20.7571 64.8014 21.9134C63.7029 23.0696 62.431 23.9773 60.9857 24.6364C59.5404 25.2839 57.991 25.6076 56.3375 25.6076ZM56.3375 20.4044C57.2625 20.4044 58.1297 20.2137 58.9391 19.8321C59.7601 19.439 60.4827 18.9071 61.1071 18.2365C61.7315 17.5543 62.2171 16.768 62.564 15.8777C62.9225 14.9873 63.1017 14.0334 63.1017 13.0159C63.1017 11.9984 62.9225 11.0445 62.564 10.1542C62.2171 9.26384 61.7315 8.48336 61.1071 7.81273C60.4827 7.13053 59.7601 6.59865 58.9391 6.21708C58.1297 5.82395 57.2625 5.62739 56.3375 5.62739C55.4125 5.62739 54.5395 5.82395 53.7186 6.21708C52.9092 6.59865 52.1923 7.13053 51.5679 7.81273C50.9436 8.48336 50.4521 9.26384 50.0937 10.1542C49.7468 11.0445 49.5734 11.9984 49.5734 13.0159C49.5734 14.0334 49.7468 14.9873 50.0937 15.8777C50.4521 16.768 50.9436 17.5543 51.5679 18.2365C52.1923 18.9071 52.9092 19.439 53.7186 19.8321C54.5395 20.2137 55.4125 20.4044 56.3375 20.4044Z" fill="#070320"/>
<path d="M80.924 25.6076C79.2821 25.6076 77.7384 25.2839 76.2931 24.6364C74.8478 23.9773 73.5759 23.0696 72.4775 21.9134C71.379 20.7571 70.5176 19.4216 69.8932 17.9069C69.2688 16.3806 68.9566 14.7503 68.9566 13.0159C68.9566 11.2815 69.2688 9.65697 69.8932 8.14226C70.5176 6.61599 71.379 5.27472 72.4775 4.11846C73.5759 2.9622 74.8478 2.06031 76.2931 1.4128C77.7384 0.75373 79.2821 0.424194 80.924 0.424194C82.5774 0.424194 84.1268 0.75373 85.5722 1.4128C87.0175 2.06031 88.2894 2.9622 89.3878 4.11846C90.4863 5.27472 91.3419 6.61599 91.9547 8.14226C92.5791 9.65697 92.8913 11.2815 92.8913 13.0159C92.8913 14.7503 92.5791 16.3806 91.9547 17.9069C91.3419 19.4216 90.4863 20.7571 89.3878 21.9134C88.2894 23.0696 87.0175 23.9773 85.5722 24.6364C84.1268 25.2839 82.5774 25.6076 80.924 25.6076ZM80.924 20.4044C81.849 20.4044 82.7162 20.2137 83.5256 19.8321C84.3465 19.439 85.0692 18.9071 85.6936 18.2365C86.3179 17.5543 86.8036 16.768 87.1505 15.8777C87.5089 14.9873 87.6881 14.0334 87.6881 13.0159C87.6881 11.9984 87.5089 11.0445 87.1505 10.1542C86.8036 9.26384 86.3179 8.48336 85.6936 7.81273C85.0692 7.13053 84.3465 6.59865 83.5256 6.21708C82.7162 5.82395 81.849 5.62739 80.924 5.62739C79.999 5.62739 79.126 5.82395 78.305 6.21708C77.4956 6.59865 76.7788 7.13053 76.1544 7.81273C75.53 8.48336 75.0386 9.26384 74.6801 10.1542C74.3333 11.0445 74.1598 11.9984 74.1598 13.0159C74.1598 14.0334 74.3333 14.9873 74.6801 15.8777C75.0386 16.768 75.53 17.5543 76.1544 18.2365C76.7788 18.9071 77.4956 19.439 78.305 19.8321C79.126 20.2137 79.999 20.4044 80.924 20.4044Z" fill="#070320"/>
<path d="M94.1013 25.1567V0.875138H103.259C104.589 0.875138 105.791 1.21624 106.866 1.89843C107.953 2.56907 108.815 3.47095 109.451 4.60409C110.087 5.72567 110.405 6.95709 110.405 8.29836C110.405 9.66275 110.075 10.9057 109.416 12.0273C108.769 13.1489 107.901 14.045 106.814 14.7156C105.728 15.3863 104.542 15.7216 103.259 15.7216H99.3045V25.1567H94.1013ZM99.3045 10.5184H102.669C103.132 10.5184 103.554 10.4028 103.935 10.1715C104.317 9.92869 104.623 9.61072 104.855 9.21759C105.086 8.82446 105.201 8.39086 105.201 7.91679C105.201 7.44272 105.086 7.00912 104.855 6.61599C104.623 6.22286 104.317 5.91067 103.935 5.67942C103.554 5.4366 103.132 5.31519 102.669 5.31519H99.3045V10.5184Z" fill="#070320"/>
</svg>
