<svg width="119" height="26" viewBox="0 0 119 26" fill="none" xmlns="http://www.w3.org/2000/svg">
<path d="M20.6215 25.4509C19.2571 25.4509 17.9506 25.237 16.7018 24.8092C15.453 24.3698 14.3603 23.7454 13.4238 22.936C12.4872 22.1151 11.8108 21.138 11.3945 20.0049L16.2855 18.2011C16.4012 18.5364 16.6555 18.8602 17.0487 19.1724C17.4534 19.4846 17.9621 19.7447 18.5749 19.9529C19.1878 20.1494 19.87 20.2477 20.6215 20.2477C21.3153 20.2477 21.9686 20.1494 22.5814 19.9529C23.1942 19.7447 23.6914 19.4614 24.073 19.103C24.4545 18.7446 24.6453 18.3283 24.6453 17.8542C24.6453 17.3686 24.443 16.9697 24.0383 16.6575C23.6452 16.3338 23.1364 16.0794 22.512 15.8944C21.8992 15.6978 21.269 15.5533 20.6215 15.4608C18.864 15.2064 17.2857 14.7901 15.8866 14.212C14.4991 13.6223 13.4007 12.8129 12.5913 11.7839C11.7934 10.7548 11.3945 9.4482 11.3945 7.86412C11.3945 6.34941 11.8223 5.02549 12.678 3.89235C13.5336 2.74764 14.661 1.85732 16.0601 1.22138C17.4707 0.585429 18.9912 0.267456 20.6215 0.267456C21.9859 0.267456 23.2925 0.487147 24.5413 0.926529C25.8016 1.35435 26.9 1.97873 27.8366 2.79968C28.7732 3.62062 29.4438 4.60345 29.8485 5.74815L24.9575 7.51724C24.8419 7.18192 24.5817 6.86395 24.177 6.56332C23.7839 6.25113 23.2809 5.99675 22.6681 5.80018C22.0553 5.60362 21.3731 5.50533 20.6215 5.50533C19.9509 5.49377 19.3092 5.59206 18.6963 5.80018C18.0835 6.00831 17.5805 6.29159 17.1874 6.65004C16.7943 7.00848 16.5977 7.41317 16.5977 7.86412C16.5977 8.4885 16.7827 8.95679 17.1527 9.26898C17.5227 9.5696 18.0084 9.78351 18.6096 9.9107C19.2224 10.0379 19.8931 10.1535 20.6215 10.2576C22.2865 10.5004 23.8186 10.934 25.2177 11.5584C26.6168 12.1828 27.7383 13.0153 28.5824 14.0559C29.4265 15.0965 29.8485 16.3627 29.8485 17.8542C29.8485 19.3689 29.4207 20.6987 28.5651 21.8434C27.721 22.9765 26.5994 23.861 25.2003 24.497C23.8012 25.1329 22.275 25.4509 20.6215 25.4509Z" fill="#FF5525"/>
<path d="M42.6549 25.4509C41.013 25.4509 39.4694 25.1271 38.024 24.4796C36.5787 23.8206 35.3068 22.9129 34.2084 21.7566C33.1215 20.6004 32.2658 19.2649 31.6414 17.7502C31.0286 16.2239 30.7222 14.5936 30.7222 12.8592C30.7222 11.1132 31.0286 9.48289 31.6414 7.96818C32.2658 6.44191 33.1215 5.10642 34.2084 3.96172C35.3068 2.80546 36.5787 1.90357 38.024 1.25606C39.4694 0.596992 41.013 0.267456 42.6549 0.267456C44.6205 0.267456 46.4301 0.72418 48.0835 1.63763C49.737 2.53952 51.1072 3.74781 52.194 5.26252L47.5459 7.76005C46.9446 7.06629 46.2219 6.51129 45.3779 6.09503C44.5338 5.67878 43.6261 5.47065 42.6549 5.47065C41.7299 5.47065 40.8569 5.66143 40.0359 6.043C39.2265 6.42457 38.5097 6.95645 37.8853 7.63864C37.2725 8.30928 36.7926 9.08976 36.4457 9.98008C36.0988 10.8704 35.9254 11.8301 35.9254 12.8592C35.9254 13.8767 36.0988 14.8306 36.4457 15.7209C36.7926 16.6113 37.2725 17.3975 37.8853 18.0797C38.5097 18.7503 39.2265 19.2822 40.0359 19.6754C40.8569 20.0569 41.7299 20.2477 42.6549 20.2477C43.6261 20.2477 44.5338 20.0396 45.3779 19.6233C46.2219 19.1955 46.9446 18.6289 47.5459 17.9236L52.194 20.4558C51.1072 21.959 49.737 23.1673 48.0835 24.0807C46.4301 24.9942 44.6205 25.4509 42.6549 25.4509Z" fill="#FF5525"/>
<path d="M64.6676 25.4509C63.0257 25.4509 61.4821 25.1271 60.0368 24.4796C58.5914 23.8206 57.3195 22.9129 56.2211 21.7566C55.1227 20.6004 54.2612 19.2649 53.6368 17.7502C53.0125 16.2239 52.7003 14.5936 52.7003 12.8592C52.7003 11.1248 53.0125 9.50023 53.6368 7.98552C54.2612 6.45925 55.1227 5.11799 56.2211 3.96172C57.3195 2.80546 58.5914 1.90357 60.0368 1.25606C61.4821 0.596992 63.0257 0.267456 64.6676 0.267456C66.3211 0.267456 67.8705 0.596992 69.3158 1.25606C70.7611 1.90357 72.033 2.80546 73.1315 3.96172C74.2299 5.11799 75.0856 6.45925 75.6984 7.98552C76.3228 9.50023 76.6349 11.1248 76.6349 12.8592C76.6349 14.5936 76.3228 16.2239 75.6984 17.7502C75.0856 19.2649 74.2299 20.6004 73.1315 21.7566C72.033 22.9129 70.7611 23.8206 69.3158 24.4796C67.8705 25.1271 66.3211 25.4509 64.6676 25.4509ZM64.6676 20.2477C65.5926 20.2477 66.4598 20.0569 67.2692 19.6754C68.0902 19.2822 68.8128 18.7503 69.4372 18.0797C70.0616 17.3975 70.5472 16.6113 70.8941 15.7209C71.2525 14.8306 71.4318 13.8767 71.4318 12.8592C71.4318 11.8417 71.2525 10.8877 70.8941 9.99742C70.5472 9.1071 70.0616 8.32662 69.4372 7.65599C68.8128 6.97379 68.0902 6.44191 67.2692 6.06034C66.4598 5.66721 65.5926 5.47065 64.6676 5.47065C63.7426 5.47065 62.8696 5.66721 62.0487 6.06034C61.2393 6.44191 60.5224 6.97379 59.898 7.65599C59.2736 8.32662 58.7822 9.1071 58.4238 9.99742C58.0769 10.8877 57.9035 11.8417 57.9035 12.8592C57.9035 13.8767 58.0769 14.8306 58.4238 15.7209C58.7822 16.6113 59.2736 17.3975 59.898 18.0797C60.5224 18.7503 61.2393 19.2822 62.0487 19.6754C62.8696 20.0569 63.7426 20.2477 64.6676 20.2477Z" fill="#FF5525"/>
<path d="M89.254 25.4509C87.6121 25.4509 86.0685 25.1271 84.6232 24.4796C83.1779 23.8206 81.906 22.9129 80.8075 21.7566C79.7091 20.6004 78.8477 19.2649 78.2233 17.7502C77.5989 16.2239 77.2867 14.5936 77.2867 12.8592C77.2867 11.1248 77.5989 9.50023 78.2233 7.98552C78.8477 6.45925 79.7091 5.11799 80.8075 3.96172C81.906 2.80546 83.1779 1.90357 84.6232 1.25606C86.0685 0.596992 87.6121 0.267456 89.254 0.267456C90.9075 0.267456 92.4569 0.596992 93.9022 1.25606C95.3476 1.90357 96.6194 2.80546 97.7179 3.96172C98.8163 5.11799 99.672 6.45925 100.285 7.98552C100.909 9.50023 101.221 11.1248 101.221 12.8592C101.221 14.5936 100.909 16.2239 100.285 17.7502C99.672 19.2649 98.8163 20.6004 97.7179 21.7566C96.6194 22.9129 95.3476 23.8206 93.9022 24.4796C92.4569 25.1271 90.9075 25.4509 89.254 25.4509ZM89.254 20.2477C90.1791 20.2477 91.0462 20.0569 91.8556 19.6754C92.6766 19.2822 93.3993 18.7503 94.0236 18.0797C94.648 17.3975 95.1337 16.6113 95.4805 15.7209C95.839 14.8306 96.0182 13.8767 96.0182 12.8592C96.0182 11.8417 95.839 10.8877 95.4805 9.99742C95.1337 9.1071 94.648 8.32662 94.0236 7.65599C93.3993 6.97379 92.6766 6.44191 91.8556 6.06034C91.0462 5.66721 90.1791 5.47065 89.254 5.47065C88.329 5.47065 87.456 5.66721 86.6351 6.06034C85.8257 6.44191 85.1088 6.97379 84.4845 7.65599C83.8601 8.32662 83.3687 9.1071 83.0102 9.99742C82.6633 10.8877 82.4899 11.8417 82.4899 12.8592C82.4899 13.8767 82.6633 14.8306 83.0102 15.7209C83.3687 16.6113 83.8601 17.3975 84.4845 18.0797C85.1088 18.7503 85.8257 19.2822 86.6351 19.6754C87.456 20.0569 88.329 20.2477 89.254 20.2477Z" fill="#FF5525"/>
<path d="M102.431 25V0.7184H111.589C112.919 0.7184 114.121 1.0595 115.197 1.74169C116.283 2.41233 117.145 3.31421 117.781 4.44735C118.417 5.56893 118.735 6.80035 118.735 8.14162C118.735 9.50601 118.405 10.749 117.746 11.8706C117.099 12.9921 116.231 13.8883 115.145 14.5589C114.058 15.2295 112.872 15.5648 111.589 15.5648H107.635V25H102.431ZM107.635 10.3616H110.999C111.462 10.3616 111.884 10.246 112.265 10.0148C112.647 9.77195 112.953 9.45398 113.185 9.06085C113.416 8.66772 113.532 8.23412 113.532 7.76005C113.532 7.28598 113.416 6.85238 113.185 6.45925C112.953 6.06612 112.647 5.75393 112.265 5.52268C111.884 5.27986 111.462 5.15846 110.999 5.15846H107.635V10.3616Z" fill="#FF5525"/>
<path d="M9.96137 25.7834C8.59697 25.7834 7.29039 25.5695 6.04163 25.1417C4.79286 24.7023 3.70019 24.0779 2.76362 23.2685C1.82704 22.4476 1.15063 21.4706 0.734375 20.3374L5.62537 18.5336C5.741 18.869 5.99538 19.1927 6.38851 19.5049C6.7932 19.8171 7.30196 20.0773 7.91478 20.2854C8.5276 20.4819 9.20979 20.5802 9.96137 20.5802C10.6551 20.5802 11.3084 20.4819 11.9212 20.2854C12.5341 20.0773 13.0312 19.794 13.4128 19.4355C13.7944 19.0771 13.9852 18.6608 13.9852 18.1868C13.9852 17.7011 13.7828 17.3022 13.3781 16.99C12.985 16.6663 12.4762 16.4119 11.8519 16.2269C11.239 16.0303 10.6089 15.8858 9.96137 15.7933C8.20384 15.5389 6.62554 15.1227 5.22646 14.5445C3.83895 13.9548 2.74049 13.1454 1.93111 12.1164C1.13329 11.0873 0.734375 9.78072 0.734375 8.19663C0.734375 6.68193 1.16219 5.35801 2.01783 4.22487C2.87346 3.08016 4.00082 2.18984 5.3999 1.55389C6.81054 0.917949 8.33103 0.599976 9.96137 0.599976C11.3258 0.599976 12.6323 0.819666 13.8811 1.25905C15.1414 1.68687 16.2399 2.31125 17.1765 3.1322C18.113 3.95314 18.7837 4.93597 19.1884 6.08067L14.2974 7.84976C14.1817 7.51444 13.9216 7.19647 13.5169 6.89584C13.1237 6.58365 12.6208 6.32927 12.008 6.1327C11.3951 5.93614 10.7129 5.83785 9.96137 5.83785C9.29073 5.82629 8.64901 5.92458 8.03619 6.1327C7.42337 6.34083 6.92039 6.62411 6.52726 6.98256C6.13413 7.341 5.93757 7.74569 5.93757 8.19663C5.93757 8.82102 6.12257 9.2893 6.49257 9.6015C6.86258 9.90212 7.34821 10.116 7.94947 10.2432C8.56229 10.3704 9.23292 10.486 9.96137 10.5901C11.6264 10.8329 13.1584 11.2665 14.5575 11.8909C15.9566 12.5153 17.0782 13.3478 17.9222 14.3884C18.7663 15.4291 19.1884 16.6952 19.1884 18.1868C19.1884 19.7015 18.7605 21.0312 17.9049 22.1759C17.0608 23.309 15.9393 24.1936 14.5402 24.8295C13.1411 25.4654 11.6148 25.7834 9.96137 25.7834Z" fill="#3A95FF"/>
<path d="M31.9947 25.7834C30.3528 25.7834 28.8092 25.4597 27.3639 24.8122C25.9185 24.1531 24.6467 23.2454 23.5482 22.0892C22.4613 20.9329 21.6057 19.5974 20.9813 18.0827C20.3685 16.5564 20.0621 14.9261 20.0621 13.1917C20.0621 11.4457 20.3685 9.8154 20.9813 8.3007C21.6057 6.77443 22.4613 5.43894 23.5482 4.29424C24.6467 3.13798 25.9185 2.23609 27.3639 1.58858C28.8092 0.929511 30.3528 0.599976 31.9947 0.599976C33.9604 0.599976 35.7699 1.0567 37.4234 1.97015C39.0768 2.87204 40.447 4.08033 41.5339 5.59504L36.8857 8.09257C36.2845 7.39881 35.5618 6.84381 34.7177 6.42755C33.8736 6.01129 32.966 5.80317 31.9947 5.80317C31.0697 5.80317 30.1967 5.99395 29.3758 6.37552C28.5664 6.75708 27.8495 7.28897 27.2251 7.97116C26.6123 8.6418 26.1325 9.42227 25.7856 10.3126C25.4387 11.2029 25.2653 12.1626 25.2653 13.1917C25.2653 14.2092 25.4387 15.1631 25.7856 16.0535C26.1325 16.9438 26.6123 17.73 27.2251 18.4122C27.8495 19.0829 28.5664 19.6147 29.3758 20.0079C30.1967 20.3894 31.0697 20.5802 31.9947 20.5802C32.966 20.5802 33.8736 20.3721 34.7177 19.9558C35.5618 19.528 36.2845 18.9615 36.8857 18.2561L41.5339 20.7884C40.447 22.2915 39.0768 23.4998 37.4234 24.4132C35.7699 25.3267 33.9604 25.7834 31.9947 25.7834Z" fill="#3A95FF"/>
<path d="M54.0075 25.7834C52.3656 25.7834 50.8219 25.4597 49.3766 24.8122C47.9313 24.1531 46.6594 23.2454 45.5609 22.0892C44.4625 20.9329 43.6011 19.5974 42.9767 18.0827C42.3523 16.5564 42.0401 14.9261 42.0401 13.1917C42.0401 11.4573 42.3523 9.83275 42.9767 8.31804C43.6011 6.79177 44.4625 5.45051 45.5609 4.29424C46.6594 3.13798 47.9313 2.23609 49.3766 1.58858C50.8219 0.929511 52.3656 0.599976 54.0075 0.599976C55.6609 0.599976 57.2103 0.929511 58.6556 1.58858C60.101 2.23609 61.3729 3.13798 62.4713 4.29424C63.5698 5.45051 64.4254 6.79177 65.0382 8.31804C65.6626 9.83275 65.9748 11.4573 65.9748 13.1917C65.9748 14.9261 65.6626 16.5564 65.0382 18.0827C64.4254 19.5974 63.5698 20.9329 62.4713 22.0892C61.3729 23.2454 60.101 24.1531 58.6556 24.8122C57.2103 25.4597 55.6609 25.7834 54.0075 25.7834ZM54.0075 20.5802C54.9325 20.5802 55.7997 20.3894 56.6091 20.0079C57.43 19.6147 58.1527 19.0829 58.777 18.4122C59.4014 17.73 59.8871 16.9438 60.2339 16.0535C60.5924 15.1631 60.7716 14.2092 60.7716 13.1917C60.7716 12.1742 60.5924 11.2203 60.2339 10.3299C59.8871 9.43962 59.4014 8.65914 58.777 7.98851C58.1527 7.30631 57.43 6.77443 56.6091 6.39286C55.7997 5.99973 54.9325 5.80317 54.0075 5.80317C53.0824 5.80317 52.2095 5.99973 51.3885 6.39286C50.5791 6.77443 49.8622 7.30631 49.2379 7.98851C48.6135 8.65914 48.1221 9.43962 47.7636 10.3299C47.4167 11.2203 47.2433 12.1742 47.2433 13.1917C47.2433 14.2092 47.4167 15.1631 47.7636 16.0535C48.1221 16.9438 48.6135 17.73 49.2379 18.4122C49.8622 19.0829 50.5791 19.6147 51.3885 20.0079C52.2095 20.3894 53.0824 20.5802 54.0075 20.5802Z" fill="#3A95FF"/>
<path d="M78.5939 25.7834C76.952 25.7834 75.4084 25.4597 73.963 24.8122C72.5177 24.1531 71.2458 23.2454 70.1474 22.0892C69.0489 20.9329 68.1875 19.5974 67.5631 18.0827C66.9387 16.5564 66.6265 14.9261 66.6265 13.1917C66.6265 11.4573 66.9387 9.83275 67.5631 8.31804C68.1875 6.79177 69.0489 5.45051 70.1474 4.29424C71.2458 3.13798 72.5177 2.23609 73.963 1.58858C75.4084 0.929511 76.952 0.599976 78.5939 0.599976C80.2473 0.599976 81.7967 0.929511 83.2421 1.58858C84.6874 2.23609 85.9593 3.13798 87.0577 4.29424C88.1562 5.45051 89.0118 6.79177 89.6246 8.31804C90.249 9.83275 90.5612 11.4573 90.5612 13.1917C90.5612 14.9261 90.249 16.5564 89.6246 18.0827C89.0118 19.5974 88.1562 20.9329 87.0577 22.0892C85.9593 23.2454 84.6874 24.1531 83.2421 24.8122C81.7967 25.4597 80.2473 25.7834 78.5939 25.7834ZM78.5939 20.5802C79.5189 20.5802 80.3861 20.3894 81.1955 20.0079C82.0164 19.6147 82.7391 19.0829 83.3635 18.4122C83.9879 17.73 84.4735 16.9438 84.8204 16.0535C85.1788 15.1631 85.358 14.2092 85.358 13.1917C85.358 12.1742 85.1788 11.2203 84.8204 10.3299C84.4735 9.43962 83.9879 8.65914 83.3635 7.98851C82.7391 7.30631 82.0164 6.77443 81.1955 6.39286C80.3861 5.99973 79.5189 5.80317 78.5939 5.80317C77.6689 5.80317 76.7959 5.99973 75.9749 6.39286C75.1656 6.77443 74.4487 7.30631 73.8243 7.98851C73.1999 8.65914 72.7085 9.43962 72.3501 10.3299C72.0032 11.2203 71.8297 12.1742 71.8297 13.1917C71.8297 14.2092 72.0032 15.1631 72.3501 16.0535C72.7085 16.9438 73.1999 17.73 73.8243 18.4122C74.4487 19.0829 75.1656 19.6147 75.9749 20.0079C76.7959 20.3894 77.6689 20.5802 78.5939 20.5802Z" fill="#3A95FF"/>
<path d="M91.7712 25.3325V1.05092H100.929C102.259 1.05092 103.461 1.39202 104.536 2.07421C105.623 2.74485 106.485 3.64673 107.121 4.77987C107.757 5.90145 108.075 7.13287 108.075 8.47414C108.075 9.83853 107.745 11.0815 107.086 12.2031C106.438 13.3247 105.571 14.2208 104.484 14.8914C103.397 15.562 102.212 15.8974 100.929 15.8974H96.9744V25.3325H91.7712ZM96.9744 10.6942H100.339C100.802 10.6942 101.224 10.5785 101.605 10.3473C101.987 10.1045 102.293 9.7865 102.524 9.39337C102.756 9.00024 102.871 8.56664 102.871 8.09257C102.871 7.6185 102.756 7.1849 102.524 6.79177C102.293 6.39864 101.987 6.08645 101.605 5.8552C101.224 5.61238 100.802 5.49098 100.339 5.49098H96.9744V10.6942Z" fill="#3A95FF"/>
<path d="M15.2914 25.6076C13.9271 25.6076 12.6205 25.3937 11.3717 24.9659C10.1229 24.5265 9.03027 23.9021 8.0937 23.0928C7.15712 22.2718 6.48071 21.2948 6.06445 20.1616L10.9555 18.3579C11.0711 18.6932 11.3255 19.0169 11.7186 19.3291C12.1233 19.6413 12.632 19.9015 13.2449 20.1096C13.8577 20.3062 14.5399 20.4044 15.2914 20.4044C15.9852 20.4044 16.6385 20.3062 17.2513 20.1096C17.8641 19.9015 18.3613 19.6182 18.7429 19.2597C19.1245 18.9013 19.3152 18.485 19.3152 18.011C19.3152 17.5253 19.1129 17.1264 18.7082 16.8142C18.3151 16.4905 17.8063 16.2361 17.1819 16.0511C16.5691 15.8545 15.939 15.71 15.2914 15.6175C13.5339 15.3631 11.9556 14.9469 10.5565 14.3687C9.16902 13.7791 8.07057 12.9697 7.26119 11.9406C6.46336 10.9115 6.06445 9.60494 6.06445 8.02085C6.06445 6.50615 6.49227 5.18222 7.34791 4.04909C8.20354 2.90438 9.3309 2.01406 10.73 1.37811C12.1406 0.742167 13.6611 0.424194 15.2914 0.424194C16.6558 0.424194 17.9624 0.643885 19.2112 1.08327C20.4715 1.51108 21.57 2.13547 22.5065 2.95641C23.4431 3.77736 24.1137 4.76019 24.5184 5.90489L19.6274 7.67397C19.5118 7.33866 19.2516 7.02068 18.847 6.72006C18.4538 6.40786 17.9509 6.15349 17.338 5.95692C16.7252 5.76036 16.043 5.66207 15.2914 5.66207C14.6208 5.65051 13.9791 5.74879 13.3663 5.95692C12.7534 6.16505 12.2505 6.44833 11.8573 6.80678C11.4642 7.16522 11.2676 7.56991 11.2676 8.02085C11.2676 8.64524 11.4526 9.11352 11.8227 9.42571C12.1927 9.72634 12.6783 9.94025 13.2795 10.0674C13.8924 10.1946 14.563 10.3103 15.2914 10.4143C16.9565 10.6571 18.4885 11.0907 19.8876 11.7151C21.2867 12.3395 22.4083 13.172 23.2523 14.2126C24.0964 15.2533 24.5184 16.5194 24.5184 18.011C24.5184 19.5257 24.0906 20.8554 23.235 22.0001C22.3909 23.1332 21.2693 24.0178 19.8703 24.6537C18.4712 25.2897 16.9449 25.6076 15.2914 25.6076Z" fill="#070320"/>
<path d="M37.3248 25.6076C35.6829 25.6076 34.1393 25.2839 32.6939 24.6364C31.2486 23.9773 29.9767 23.0696 28.8783 21.9134C27.7914 20.7571 26.9358 19.4216 26.3114 17.9069C25.6985 16.3806 25.3921 14.7503 25.3921 13.0159C25.3921 11.27 25.6985 9.63962 26.3114 8.12492C26.9358 6.59865 27.7914 5.26316 28.8783 4.11846C29.9767 2.9622 31.2486 2.06031 32.6939 1.4128C34.1393 0.75373 35.6829 0.424194 37.3248 0.424194C39.2904 0.424194 41.1 0.880919 42.7535 1.79437C44.4069 2.69625 45.7771 3.90455 46.864 5.41926L42.2158 7.91679C41.6145 7.22303 40.8919 6.66802 40.0478 6.25177C39.2037 5.83551 38.2961 5.62739 37.3248 5.62739C36.3998 5.62739 35.5268 5.81817 34.7058 6.19974C33.8965 6.5813 33.1796 7.11319 32.5552 7.79538C31.9424 8.46601 31.4625 9.24649 31.1156 10.1368C30.7688 11.0271 30.5953 11.9868 30.5953 13.0159C30.5953 14.0334 30.7688 14.9873 31.1156 15.8777C31.4625 16.768 31.9424 17.5543 32.5552 18.2365C33.1796 18.9071 33.8965 19.439 34.7058 19.8321C35.5268 20.2137 36.3998 20.4044 37.3248 20.4044C38.2961 20.4044 39.2037 20.1963 40.0478 19.7801C40.8919 19.3522 41.6145 18.7857 42.2158 18.0804L46.864 20.6126C45.7771 22.1157 44.4069 23.324 42.7535 24.2375C41.1 25.1509 39.2904 25.6076 37.3248 25.6076Z" fill="#070320"/>
<path d="M59.3375 25.6076C57.6956 25.6076 56.152 25.2839 54.7067 24.6364C53.2614 23.9773 51.9895 23.0696 50.891 21.9134C49.7926 20.7571 48.9312 19.4216 48.3068 17.9069C47.6824 16.3806 47.3702 14.7503 47.3702 13.0159C47.3702 11.2815 47.6824 9.65697 48.3068 8.14226C48.9312 6.61599 49.7926 5.27472 50.891 4.11846C51.9895 2.9622 53.2614 2.06031 54.7067 1.4128C56.152 0.75373 57.6956 0.424194 59.3375 0.424194C60.991 0.424194 62.5404 0.75373 63.9857 1.4128C65.431 2.06031 66.7029 2.9622 67.8014 4.11846C68.8998 5.27472 69.7555 6.61599 70.3683 8.14226C70.9927 9.65697 71.3049 11.2815 71.3049 13.0159C71.3049 14.7503 70.9927 16.3806 70.3683 17.9069C69.7555 19.4216 68.8998 20.7571 67.8014 21.9134C66.7029 23.0696 65.431 23.9773 63.9857 24.6364C62.5404 25.2839 60.991 25.6076 59.3375 25.6076ZM59.3375 20.4044C60.2625 20.4044 61.1297 20.2137 61.9391 19.8321C62.7601 19.439 63.4827 18.9071 64.1071 18.2365C64.7315 17.5543 65.2171 16.768 65.564 15.8777C65.9225 14.9873 66.1017 14.0334 66.1017 13.0159C66.1017 11.9984 65.9225 11.0445 65.564 10.1542C65.2171 9.26384 64.7315 8.48336 64.1071 7.81273C63.4827 7.13053 62.7601 6.59865 61.9391 6.21708C61.1297 5.82395 60.2625 5.62739 59.3375 5.62739C58.4125 5.62739 57.5395 5.82395 56.7186 6.21708C55.9092 6.59865 55.1923 7.13053 54.5679 7.81273C53.9436 8.48336 53.4521 9.26384 53.0937 10.1542C52.7468 11.0445 52.5734 11.9984 52.5734 13.0159C52.5734 14.0334 52.7468 14.9873 53.0937 15.8777C53.4521 16.768 53.9436 17.5543 54.5679 18.2365C55.1923 18.9071 55.9092 19.439 56.7186 19.8321C57.5395 20.2137 58.4125 20.4044 59.3375 20.4044Z" fill="#070320"/>
<path d="M83.924 25.6076C82.2821 25.6076 80.7384 25.2839 79.2931 24.6364C77.8478 23.9773 76.5759 23.0696 75.4775 21.9134C74.379 20.7571 73.5176 19.4216 72.8932 17.9069C72.2688 16.3806 71.9566 14.7503 71.9566 13.0159C71.9566 11.2815 72.2688 9.65697 72.8932 8.14226C73.5176 6.61599 74.379 5.27472 75.4775 4.11846C76.5759 2.9622 77.8478 2.06031 79.2931 1.4128C80.7384 0.75373 82.2821 0.424194 83.924 0.424194C85.5774 0.424194 87.1268 0.75373 88.5722 1.4128C90.0175 2.06031 91.2894 2.9622 92.3878 4.11846C93.4863 5.27472 94.3419 6.61599 94.9547 8.14226C95.5791 9.65697 95.8913 11.2815 95.8913 13.0159C95.8913 14.7503 95.5791 16.3806 94.9547 17.9069C94.3419 19.4216 93.4863 20.7571 92.3878 21.9134C91.2894 23.0696 90.0175 23.9773 88.5722 24.6364C87.1268 25.2839 85.5774 25.6076 83.924 25.6076ZM83.924 20.4044C84.849 20.4044 85.7162 20.2137 86.5256 19.8321C87.3465 19.439 88.0692 18.9071 88.6936 18.2365C89.3179 17.5543 89.8036 16.768 90.1505 15.8777C90.5089 14.9873 90.6881 14.0334 90.6881 13.0159C90.6881 11.9984 90.5089 11.0445 90.1505 10.1542C89.8036 9.26384 89.3179 8.48336 88.6936 7.81273C88.0692 7.13053 87.3465 6.59865 86.5256 6.21708C85.7162 5.82395 84.849 5.62739 83.924 5.62739C82.999 5.62739 82.126 5.82395 81.305 6.21708C80.4956 6.59865 79.7788 7.13053 79.1544 7.81273C78.53 8.48336 78.0386 9.26384 77.6801 10.1542C77.3333 11.0445 77.1598 11.9984 77.1598 13.0159C77.1598 14.0334 77.3333 14.9873 77.6801 15.8777C78.0386 16.768 78.53 17.5543 79.1544 18.2365C79.7788 18.9071 80.4956 19.439 81.305 19.8321C82.126 20.2137 82.999 20.4044 83.924 20.4044Z" fill="#070320"/>
<path d="M97.1013 25.1567V0.875138H106.259C107.589 0.875138 108.791 1.21624 109.866 1.89843C110.953 2.56907 111.815 3.47095 112.451 4.60409C113.087 5.72567 113.405 6.95709 113.405 8.29836C113.405 9.66275 113.075 10.9057 112.416 12.0273C111.769 13.1489 110.901 14.045 109.814 14.7156C108.728 15.3863 107.542 15.7216 106.259 15.7216H102.305V25.1567H97.1013ZM102.305 10.5184H105.669C106.132 10.5184 106.554 10.4028 106.935 10.1715C107.317 9.92869 107.623 9.61072 107.855 9.21759C108.086 8.82446 108.201 8.39086 108.201 7.91679C108.201 7.44272 108.086 7.00912 107.855 6.61599C107.623 6.22286 107.317 5.91067 106.935 5.67942C106.554 5.4366 106.132 5.31519 105.669 5.31519H102.305V10.5184Z" fill="#070320"/>
</svg>
