<svg width="21" height="22" viewBox="0 0 21 22" fill="none" xmlns="http://www.w3.org/2000/svg">
<path d="M21.0001 11.2399C21.0001 10.5377 20.9385 9.87106 20.8329 9.22217H10.8911V13.2311H16.5835C16.3283 14.5466 15.5805 15.6577 14.4719 16.4133V19.0799H17.868C19.8563 17.2222 21.0001 14.4844 21.0001 11.2399Z" fill="black"/>
<path d="M10.891 21.6665C13.7416 21.6665 16.1258 20.7065 17.8679 19.0798L14.4718 16.4132C13.5216 17.0532 12.3163 17.4443 10.891 17.4443C8.1372 17.4443 5.80571 15.5687 4.96989 13.0354H1.46826V15.7821C3.20148 19.2665 6.7647 21.6665 10.891 21.6665Z" fill="black"/>
<path d="M4.97008 13.0356C4.75013 12.3956 4.63575 11.7111 4.63575 11C4.63575 10.2889 4.75893 9.60444 4.97008 8.96444V6.21777H1.46845C0.747005 7.65777 0.333496 9.27555 0.333496 11C0.333496 12.7244 0.747005 14.3422 1.46845 15.7822L4.97008 13.0356Z" fill="black"/>
<path d="M10.891 4.55547C12.4483 4.55547 13.8383 5.0977 14.9381 6.15547L17.947 3.11547C16.1258 1.39103 13.7416 0.333252 10.891 0.333252C6.7647 0.333252 3.20148 2.73325 1.46826 6.2177L4.96989 8.96436C5.80571 6.43103 8.1372 4.55547 10.891 4.55547Z" fill="black"/>
</svg>
