<svg width="14" height="14" viewBox="0 0 14 14" fill="none" xmlns="http://www.w3.org/2000/svg">
<path d="M5.83333 7C5.83333 6.72386 6.05719 6.5 6.33333 6.5H7C7.27614 6.5 7.5 6.72386 7.5 7V10.3333C7.5 10.6095 7.27614 10.8333 7 10.8333C6.72386 10.8333 6.5 10.6095 6.5 10.3333V7.5H6.33333C6.05719 7.5 5.83333 7.27614 5.83333 7Z" fill="#070320" fill-opacity="0.56"/>
<path fill-rule="evenodd" clip-rule="evenodd" d="M6.83267 3.83333C6.46583 3.83333 6.16497 4.13099 6.16667 4.50181C6.16765 4.86912 6.4658 5.16667 6.83333 5.16667C7.20148 5.16667 7.5 4.86814 7.5 4.5C7.5 4.13056 7.20018 3.83333 6.83267 3.83333Z" fill="#070320" fill-opacity="0.56"/>
<path fill-rule="evenodd" clip-rule="evenodd" d="M7 0.5C3.40986 0.5 0.5 3.40986 0.5 7C0.5 10.5901 3.40986 13.5 7 13.5C10.5901 13.5 13.5 10.5901 13.5 7C13.5 3.40986 10.5901 0.5 7 0.5ZM7 1.5C3.96214 1.5 1.5 3.96214 1.5 7C1.5 10.0379 3.96214 12.5 7 12.5C10.0379 12.5 12.5 10.0379 12.5 7C12.5 3.96214 10.0379 1.5 7 1.5Z" fill="#070320" fill-opacity="0.56"/>
</svg>
