<svg width="20" height="20" viewBox="0 0 20 20" fill="none" xmlns="http://www.w3.org/2000/svg">
<path fill-rule="evenodd" clip-rule="evenodd" d="M5.38051 1.53846C3.25777 1.53846 1.53846 3.25857 1.53846 5.38051V14.6195C1.53846 16.7422 3.25857 18.4615 5.38051 18.4615H14.6195C16.7423 18.4615 18.4615 16.7413 18.4615 14.6205V5.38051C18.4615 3.25766 16.7413 1.53846 14.6205 1.53846H5.38051ZM0 5.38051C0 2.40912 2.40787 0 5.38051 0H14.6205C17.591 0 20 2.40799 20 5.38051V14.6205C20 17.591 17.592 20 14.6195 20H5.38051C2.40912 20 0 17.5921 0 14.6195V5.38051ZM15.0718 3.80822L15.0759 3.80819C15.6888 3.80821 16.1951 4.30462 16.1918 4.92822L15.4995 4.92451C15.4995 4.92438 15.4995 4.92465 15.4995 4.92451L16.1918 4.9241C16.1918 4.92547 16.1918 4.92685 16.1918 4.92822C16.1896 5.54193 15.6912 6.03897 15.0769 6.03897C14.4643 6.03897 13.961 5.54267 13.961 4.9241C13.961 4.30771 14.4602 3.8115 15.0718 3.80822ZM14.6533 4.92213C14.6533 4.92141 14.6533 4.9207 14.6534 4.91999C14.6556 4.6883 14.8435 4.50129 15.0755 4.50052C15.0753 4.50052 15.0756 4.50051 15.0755 4.50052C15.0758 4.50051 15.0766 4.50051 15.0769 4.50051C15.308 4.50051 15.4995 4.68748 15.4995 4.92451C15.4993 5.15918 15.3099 5.34542 15.08 5.34666L15.0759 4.57744V5.34667C14.8479 5.34667 14.6543 5.16212 14.6533 4.9241C14.6533 4.92344 14.6533 4.92279 14.6533 4.92213ZM14.6533 4.92213C14.6533 4.92141 14.6533 4.9207 14.6534 4.91999L14.6533 4.9241M12.0669 7.93308C10.9254 6.79154 9.07462 6.79154 7.93309 7.93308C6.79155 9.07461 6.79155 10.9254 7.93309 12.0669C9.07462 13.2085 10.9254 13.2085 12.0669 12.0669C13.2085 10.9254 13.2085 9.07461 12.0669 7.93308ZM6.84523 6.84522C8.58757 5.10288 11.4125 5.10288 13.1548 6.84522C14.8971 8.58756 14.8971 11.4124 13.1548 13.1548C11.4125 14.8971 8.58757 14.8971 6.84523 13.1548C5.10289 11.4124 5.10289 8.58756 6.84523 6.84522Z" fill="#070320"/>
</svg>
