<svg width="20" height="17" viewBox="0 0 20 17" fill="none" xmlns="http://www.w3.org/2000/svg">
<path fill-rule="evenodd" clip-rule="evenodd" d="M2.6646 0.00155909C2.92963 0.0183228 3.16715 0.168776 3.29291 0.399551C4.20505 2.0734 5.78527 3.59889 7.49417 4.30087C7.70124 3.22015 8.18918 2.26037 8.92522 1.5183C9.88272 0.552963 11.2174 4.1923e-06 12.7692 4.1923e-06C13.7942 4.1923e-06 14.6591 0.193371 15.3899 0.578135C15.9897 0.893974 16.4671 1.32189 16.8574 1.82143H19.2308C19.5145 1.82143 19.7751 1.97548 19.909 2.22225C20.0428 2.46903 20.0282 2.76846 19.8708 3.00134L18.1523 5.54462C18.1084 8.77568 17.1458 11.6142 15.3076 13.6695C13.4149 15.7858 10.6571 17 7.23077 17C5.23633 17 3.78574 16.482 2.65453 15.6922C1.5468 14.9189 0.789009 13.9116 0.148054 13.0458C-0.00890362 12.8338 -0.0436427 12.5568 0.0562031 12.3135C0.145292 12.0963 0.330235 11.9335 0.555338 11.8692L0.568915 11.8649L0.656283 11.8367C0.732903 11.8119 0.841465 11.7764 0.971789 11.7336C1.23221 11.6482 1.57698 11.5347 1.92118 11.4212C2.01448 11.3904 2.10772 11.3596 2.19919 11.3295C-0.383451 8.03805 -0.394558 3.60305 1.98993 0.317134C2.14453 0.104092 2.39958 -0.0152046 2.6646 0.00155909ZM3.78283 12.4071L3.35416 12.5488C3.0968 12.6338 2.7533 12.7472 2.40883 12.8608C2.28114 12.9029 2.15328 12.945 2.0296 12.9857C2.47587 13.5376 2.95276 14.041 3.54318 14.4532C4.39734 15.0495 5.53291 15.4821 7.23077 15.4821C10.266 15.4821 12.5851 14.4196 14.154 12.6653C15.7334 10.8992 16.6154 8.36033 16.6154 5.3125C16.6154 5.16267 16.6603 5.01619 16.7446 4.89153L17.7934 3.33929H16.4615C16.2029 3.33929 15.9616 3.21108 15.8193 2.99805C15.4992 2.51899 15.1285 2.161 14.6655 1.91723C14.2009 1.67259 13.5955 1.51786 12.7692 1.51786C11.6021 1.51786 10.6732 1.92621 10.0248 2.57992C9.37228 3.23777 8.9612 4.18808 8.92266 5.33759C8.915 5.56589 8.80353 5.77865 8.61917 5.91683C8.4348 6.05501 8.19716 6.10391 7.97218 6.04996C5.84597 5.54014 3.90838 3.99297 2.62202 2.2038C1.13581 5.07831 1.57308 8.64795 4.08535 11.1538C4.27216 11.3401 4.34831 11.6084 4.28677 11.8633C4.22524 12.1183 4.0347 12.3238 3.78283 12.4071Z" fill="#070320"/>
</svg>
